<?xml version="1.0" standalone="no"?><!DOCTYPE svg PUBLIC "-//W3C//DTD SVG 1.1//EN" "http://www.w3.org/Graphics/SVG/1.1/DTD/svg11.dtd"><svg class="icon" width="200px" height="200.00px" viewBox="0 0 1024 1024" version="1.1" xmlns="http://www.w3.org/2000/svg"><path fill="#2c2c2c" d="M674.815322 241.619894h-325.630644c-48.008742 0-87.067589 39.056572-87.067589 87.065315v15.884643c0 0.181955-0.022744 0.35936-0.027293 0.539041h499.813585c-0.004549-0.17968-0.029568-0.357086-0.029568-0.541315v-15.884644c0.004549-48.006468-39.049749-87.06304-87.058491-87.06304z"  /><path fill="#2c2c2c" d="M213.871805 344.569852v-15.884643c0-74.610517 60.700081-135.312872 135.315147-135.312873h325.630645c74.610517 0 135.308323 60.700081 135.308323 135.310598v15.884644c0 0.184229-0.022744 0.361635-0.027293 0.541315h75.74091V193.906828c0-93.151698-75.786399-168.935823-168.938097-168.935823H307.094011c-93.151698 0-168.935823 75.784124-168.935822 168.935823v151.202065h75.74091c-0.004549-0.177406-0.027293-0.354812-0.027294-0.539041zM953.285588 393.358725H70.712138c-38.992888 0-70.712138 31.721524-70.712138 70.712138v353.920048c0 38.990614 31.721524 70.712138 70.712138 70.712138h32.269662L75.295121 966.838937c-4.451066 12.559422 2.124321 26.347038 14.681468 30.79583 2.663362 0.94389 5.383584 1.391953 8.056044 1.391953 9.930177 0 19.23261-6.179636 22.737512-16.073421l33.397781-94.252525h715.673246l33.397781 94.252525c3.507176 9.89606 12.809609 16.073422 22.739786 16.073421a24.063506 24.063506 0 0 0 8.056044-1.391953c12.559422-4.448792 19.132535-18.238682 14.681468-30.79583l-27.691228-78.138163h32.260565c38.992888 0 70.714412-31.721524 70.714412-70.712137V464.070863c0-38.990614-31.723798-70.712138-70.714412-70.712138z"  /></svg>