<?xml version="1.0" standalone="no"?>
<!DOCTYPE svg PUBLIC "-//W3C//DTD SVG 1.1//EN" "http://www.w3.org/Graphics/SVG/1.1/DTD/svg11.dtd" >
<!--
2013-9-30: Created.
-->
<svg>
<metadata>
Created by iconfont
</metadata>
<defs>

<font id="iconfont" horiz-adv-x="1024" >
  <font-face
    font-family="iconfont"
    font-weight="500"
    font-stretch="normal"
    units-per-em="1024"
    ascent="896"
    descent="-128"
  />
    <missing-glyph />
    
    <glyph glyph-name="jiahao1" unicode="&#58902;" d="M916.115386 428.771693 557.971519 428.771693 557.971519 786.914536c0 24.714891-20.056801 44.771693-44.770669 44.771693-24.715915 0-44.772716-20.056801-44.772716-44.771693l0-358.142843L110.285291 428.771693c-24.715915 0-44.771693-20.056801-44.771693-44.771693s20.056801-44.772716 44.771693-44.772716l358.142843 0 0-358.143866c0-24.761963 20.056801-44.770669 44.772716-44.770669 24.713868 0 44.770669 20.008706 44.770669 44.770669L557.971519 339.227284l358.143866 0c24.762987 0 44.771693 20.057825 44.771693 44.772716S940.878372 428.771693 916.115386 428.771693L916.115386 428.771693zM916.115386 428.771693"  horiz-adv-x="1024" />

    
    <glyph glyph-name="jiantou" unicode="&#58904;" d="M830.687738 292.928818c0-9.614985-3.933589-17.949814-11.799744-25.007557-7.867178-7.05672-17.222243-10.56052-28.065196-10.512425L232.716714 257.408837c-10.789741 0-20.144806 3.5038-28.064172 10.512425-7.919367 7.009647-11.852956 15.344476-11.799744 25.007557 0.053212 9.660011 3.986801 17.996886 11.799744 25.00551l279.05253 248.641917c7.867178 7.009647 17.22122 10.513448 28.065196 10.513448 10.842952 0 20.196994-3.504824 28.064172-10.513448l279.05253-248.641917C826.754149 310.925704 830.687738 302.588829 830.687738 292.928818z"  horiz-adv-x="1024" />

    
    <glyph glyph-name="dingdan1" unicode="&#58939;" d="M603.792613 827.35048 409.943626 827.35048c-23.77652 0-42.785455-21.154809-42.785455-47.303352 0-26.208918 19.043728-47.426149 42.785455-47.426149l195.048301 0c22.580275 0 41.617863 21.217231 41.617863 47.426149C646.614907 806.196695 627.599831 827.35048 603.792613 827.35048L603.792613 827.35048 603.792613 827.35048zM814.280558 795.778414l-96.531544 0c0.981351-5.183046 1.548262-10.425444 1.548262-15.731286 0.029676-39.817867-28.855188-79.006402-63.21474-79.006402L359.51919 701.040726c-36.160571 0-65.084321 39.188534-65.084321 79.006402 0.034792 5.305843 0.601704 10.54824 1.583055 15.731286l-97.698113 0c-78.533634 0-97.828073-44.523029-97.828073-108.750843l0-636.20993c0-68.995397 27.629267-107.61088 103.758132-107.61088l604.094488 0c76.129888 0 113.137757 30.27656 113.137757 107.576087L921.482115 687.028595c0.00614 64.221674-34.641985 108.744703-107.200534 108.744703l0 0L814.281581 795.778414zM715.102744 167.619858 295.321052 167.619858c-15.47239 0-30.918173 18.980283-30.918173 34.477232 0 15.44476 13.072737 28.675086 28.54615 28.675086l418.5834 0c15.468296 0 28.54001-12.025894 29.713742-28.675086C741.246171 186.595025 730.571041 167.619858 715.102744 167.619858L715.102744 167.619858 715.102744 167.619858zM716.808596 336.074478 297.021787 336.074478c-15.474436 0-25.326828 16.636912-25.326828 32.145118 0 15.503089 13.078877 31.007201 28.54615 31.007201l418.5834 0c15.474436 0 28.54615-14.364149 29.713742-31.007201C748.539274 352.716506 732.24824 336.074478 716.808596 336.074478L716.808596 336.074478 716.808596 336.074478zM716.808596 509.084856 297.021787 509.084856c-15.474436 0-25.326828 16.643052-25.326828 32.145118 0 15.504112 13.078877 31.007201 28.54615 31.007201l418.5834 0c15.474436 0 28.54615-14.370289 29.713742-31.007201C748.539274 525.727908 732.24824 509.084856 716.808596 509.084856L716.808596 509.084856 716.808596 509.084856zM716.808596 509.084856"  horiz-adv-x="1024" />

    
    <glyph glyph-name="sousuo" unicode="&#58905;" d="M1012.367-117.139c-14.858-14.481-38.945-14.481-53.805 0l-152.192 156.862c-85.021-67.222-193.272-107.649-311.291-107.649-273.155-0.002-494.591 215.777-494.591 481.961s221.436 481.965 494.591 481.965c273.153 0 494.589-215.779 494.589-481.965 0-124.458-48.826-237.533-128.301-323.041l151-155.699c14.86-14.487 14.86-37.96 0-52.433zM495.079 798.565c-231.133 0-395.234-159.296-395.234-384.528 0-225.228 164.103-384.536 395.234-384.536 231.131 0 395.232 159.308 395.232 384.536 0 225.23-164.101 384.528-395.232 384.528z"  horiz-adv-x="1024" />

    
    <glyph glyph-name="xiala" unicode="&#58972;" d="M787.2 515.2c-9.6 9.6-22.4 12.8-35.2 12.8l-480-3.2c-12.8 0-25.6-3.2-35.2-12.8-19.2-19.2-19.2-48 0-67.2l240-240c0 0 0 0 0 0 0 0 0 0 0 0 3.2-3.2 9.6-6.4 12.8-9.6 0 0 3.2-3.2 3.2-3.2 16-6.4 38.4-3.2 51.2 9.6l240 243.2C806.4 467.2 803.2 496 787.2 515.2z"  horiz-adv-x="1024" />

    
    <glyph glyph-name="18" unicode="&#58896;" d="M896-128l-166.4 0c-32 0-64 12.8-89.6 38.4-32 32-76.8 51.2-121.6 51.2s-89.6-19.2-121.6-51.2C364.8-115.2 332.8-128 294.4-128L128-128c-70.4 0-128 57.6-128 128L0 768c0 70.4 57.6 128 128 128l172.8 0c32 0 64-12.8 89.6-38.4C422.4 825.6 467.2 806.4 512 806.4s89.6 19.2 121.6 51.2C659.2 883.2 691.2 896 723.2 896L896 896c70.4 0 128-57.6 128-128L1024 0C1024-70.4 966.4-128 896-128zM512 25.6c64 0 121.6-25.6 166.4-70.4 12.8-12.8 32-19.2 44.8-19.2L896-64c38.4 0 64 32 64 64L960 768c0 38.4-32 64-64 64l-172.8 0c-12.8 0-32-6.4-44.8-19.2C633.6 768 576 742.4 512 742.4S390.4 768 345.6 812.8C332.8 825.6 320 832 300.8 832L128 832C96 832 64 800 64 768L64 0c0-38.4 32-64 64-64l166.4 0c19.2 0 32 6.4 44.8 19.2C390.4 0 448 25.6 512 25.6zM992 467.2l-147.2 0c-19.2 0-32 12.8-32 32s12.8 32 32 32l147.2 0c19.2 0 32-12.8 32-32S1011.2 467.2 992 467.2zM684.8 467.2 595.2 467.2c-19.2 0-32 12.8-32 32s12.8 32 32 32l89.6 0c19.2 0 32-12.8 32-32S704 467.2 684.8 467.2zM435.2 467.2 352 467.2C332.8 467.2 320 480 320 499.2s12.8 32 32 32l89.6 0c19.2 0 32-12.8 32-32S454.4 467.2 435.2 467.2zM179.2 467.2l-128 0c-19.2 0-32 12.8-32 32s12.8 32 32 32l128 0c19.2 0 32-12.8 32-32S192 467.2 179.2 467.2z"  horiz-adv-x="1024" />

    
    <glyph glyph-name="qianbao" unicode="&#58891;" d="M953.6 192c-19.2 0-32-12.8-32-32l0-140.8-844.8 0 0 620.8 844.8 0 0-134.4c0-19.2 12.8-32 32-32s32 12.8 32 32L985.6 633.6c0 38.4-32 70.4-70.4 70.4l-51.2 0c-19.2 70.4-83.2 128-160 128L166.4 832C76.8 832 0 755.2 0 665.6l0-25.6 0-6.4 0-614.4c0-38.4 32-70.4 70.4-70.4l844.8 0c38.4 0 70.4 32 70.4 70.4l0 140.8C985.6 172.8 972.8 192 953.6 192zM166.4 761.6 704 761.6c38.4 0 70.4-25.6 89.6-57.6L83.2 704C96 736 128 761.6 166.4 761.6zM902.4 448l-172.8 0c-64 0-121.6-51.2-121.6-121.6s51.2-121.6 121.6-121.6l172.8 0c64 0 121.6 51.2 121.6 121.6S972.8 448 902.4 448zM902.4 275.2l-172.8 0c-25.6 0-51.2 19.2-51.2 51.2 0 25.6 19.2 51.2 51.2 51.2l172.8 0c25.6 0 51.2-19.2 51.2-51.2C953.6 300.8 934.4 275.2 902.4 275.2zM736 326.4m-32 0a0.5 0.5 0 1 0 64 0 0.5 0.5 0 1 0-64 0Z"  horiz-adv-x="1024" />

    
    <glyph glyph-name="jifen1" unicode="&#58969;" d="M874.056001 746.048c-199.936 199.936-524.128 199.936-724.096-0.032s-199.936-524.096 0.032-724.032c199.968-199.968 524.128-199.968 724.064-0.064s199.968 524.16 0 724.128zM628.328001 255.904c-51.936-51.936-93.088-106.208-119.712-154.752-26.624 48.544-67.776 102.816-119.712 154.752s-106.208 93.088-154.752 119.712c48.544 26.624 102.816 67.776 154.752 119.712s93.088 106.208 119.712 154.752c26.624-48.544 67.776-102.816 119.712-154.752s106.208-93.088 154.752-119.712c-48.512-26.624-102.816-67.808-154.752-119.712z"  horiz-adv-x="1025" />

    
    <glyph glyph-name="wancheng" unicode="&#58973;" d="M435.2 211.2c-6.4 0-12.8 0-19.2 6.4L268.8 358.4C256 371.2 249.6 390.4 262.4 403.2c12.8 12.8 32 12.8 44.8 0l147.2-140.8c12.8-12.8 12.8-32 0-44.8C454.4 211.2 448 211.2 435.2 211.2zM435.2 211.2c-6.4 0-19.2 6.4-25.6 12.8-12.8 12.8-12.8 32 0 44.8l300.8 281.6c12.8 12.8 32 12.8 44.8 0 12.8-12.8 12.8-32 0-44.8l-300.8-281.6C454.4 211.2 448 211.2 435.2 211.2zM512-128c-281.6 0-512 230.4-512 512s230.4 512 512 512 512-230.4 512-512S793.6-128 512-128zM512 832C262.4 832 64 633.6 64 384s198.4-448 448-448 448 198.4 448 448S761.6 832 512 832z"  horiz-adv-x="1024" />

    
    <glyph glyph-name="diannaopcxianshiqi" unicode="&#59245;" d="M832 768h-640c-70.656 0-128-57.344-128-128v-384c0-70.656 57.344-128 128-128h640c70.656 0 128 57.344 128 128V640c0 70.656-57.344 128-128 128zM896 256c0-35.328-28.672-64-64-64h-640c-35.328 0-64 28.672-64 64V640c0 35.328 28.672 64 64 64h640c35.328 0 64-28.672 64-64v-384z m-159.744-256H288.256c-17.92 0-32.256-14.336-32.256-32.256s14.336-32.256 32.256-32.256h448c17.408 0 32.256 14.336 32.256 32.256s-14.848 32.256-32.256 32.256zM114.176 336.384h791.04v-60.416H114.176z"  horiz-adv-x="1024" />

    
    <glyph glyph-name="qianbao1" unicode="&#58934;" d="M906.614499 75.849758l0-46.716998c0-51.388391-42.044582-93.432972-93.432972-93.432972L159.14765-64.300212c-51.856042 0-93.432972 42.044582-93.432972 93.432972L65.714677 683.166637c0 51.388391 41.577954 93.432972 93.432972 93.432972l654.033877 0c51.388391 0 93.432972-42.044582 93.432972-93.432972l0-46.716998L486.164588 636.449639c-51.855018 0-93.432972-42.044582-93.432972-93.432972l0-373.733936c0-51.388391 41.577954-93.432972 93.432972-93.432972L906.614499 75.849758zM486.164588 169.283754l467.166909 0L953.331497 543.016667 486.164588 543.016667 486.164588 169.283754zM673.031557 286.074713c-38.775118 0-70.074985 31.299867-70.074985 70.074985s31.299867 70.074985 70.074985 70.074985c38.775118 0 70.074985-31.299867 70.074985-70.074985S711.806675 286.074713 673.031557 286.074713z"  horiz-adv-x="1024" />

    
    <glyph glyph-name="qian1" unicode="&#58917;" d="M504.953909-127.365671c-278.056792 0-503.461221 225.451752-503.461221 503.459207 0 278.058806 225.404429 503.461221 503.461221 503.461221 278.009469 0 503.461221-225.402416 503.461221-503.461221C1008.41513 98.086082 782.963378-127.365671 504.953909-127.365671L504.953909-127.365671 504.953909-127.365671zM504.953909 816.622231c-243.293526 0-440.526681-197.234162-440.526681-440.528694 0-243.292519 197.233155-440.479358 440.526681-440.479358 243.294533 0 440.480365 197.186839 440.480365 440.479358C945.434274 619.38807 748.248442 816.622231 504.953909 816.622231L504.953909 816.622231 504.953909 816.622231zM536.420676 61.430903l-62.933534 0L473.487142 218.811053 284.690569 218.811053l0 62.884197 188.796573 0 0 94.398287L284.690569 376.093537l0 62.934541 153.598339 0-154.082644 217.645473 53.96331 34.132964 156.022887-220.312677 35.732884 0L669.413377 679.025104l52.315061-35.005922L584.565272 439.028077l140.652984 0 0-62.934541-182.737217 0-6.06137-9.01654 0-85.381747 188.79758 0 0-62.884197L536.420676 218.811053 536.420676 61.430903 536.420676 61.430903 536.420676 61.430903z"  horiz-adv-x="1024" />

    
    <glyph glyph-name="qian" unicode="&#58881;" d="M387.017 634.845h242.129c74.925 0 132.079 162.482 132.079 162.482 0 48.66-4.872 85.475-88.070 88.069-83.172 2.62-103.098-58.159-162.871-58.159-61.266 0-91.911 47.78-167.301 58.159-75.365 10.426-88.044-39.409-88.044-88.069 0-0.001 57.129-162.482 132.079-162.482zM642.363 584.618h-255.346c-282.762 0-352.204-555.51-352.204-555.51 0-72.967 59.138-146.253 132.079-146.253h695.57c72.942 0 132.078 73.286 132.078 146.253 0.001-0.001-69.464 555.51-352.178 555.51zM671.345 157.688c17.036 0 30.842-13.83 30.842-30.867 0-17.035-13.805-30.865-30.842-30.865h-125.202v-80.971c0-17.035-13.805-30.867-30.817-30.867-17.036 0-30.84 13.832-30.84 30.867l-0 80.971h-126.010c-17.035 0-30.84 13.83-30.84 30.865 0 17.037 13.805 30.867 30.84 30.867h126.010v39.162h-126.010c-17.035 0-30.84 13.806-30.84 30.842 0 17.036 13.805 30.891 30.84 30.891h85.181l-87.212 154.99c-8.518 14.785-3.452 33.632 11.284 42.149 14.759 8.519 33.607 3.476 42.125-11.258l105.008-185.881h5.311l105.008 185.881c8.517 14.735 27.365 19.778 42.101 11.258 14.76-8.517 19.828-27.364 11.309-42.149l-87.212-154.99h79.967c17.036 0 30.842-13.854 30.842-30.891 0-17.035-13.805-30.842-30.842-30.842h-125.202v-39.162l125.202-0z"  horiz-adv-x="1024" />

    
    <glyph glyph-name="suo" unicode="&#59482;" d="M767.232 512l-62.976 0L704.256 609.536c0 122.24-100.736 221.76-224.64 221.76-123.904 0-224.64-99.52-224.64-221.76L254.976 512 191.232 512c-70.656 0-128-57.344-128-128l0-320c0-70.656 57.344-128 128-128l576 0c70.72 0 128 57.344 128 128L895.232 384C895.232 454.656 838.016 512 767.232 512zM319.104 609.536c0 87.296 72 158.4 160.448 158.4C568.128 767.936 640 696.896 640 609.536L640 512 319.104 512 319.104 609.536zM831.232 64c0-35.392-28.608-64-64-64l-576 0c-35.328 0-64 28.608-64 64L127.232 384c0 35.392 28.672 64 64 64l576 0c35.392 0 64-28.608 64-64L831.232 64zM479.232 384c-53.056 0-96-43.008-96-96 0-41.728 26.816-76.864 64-90.112L447.232 96c0-17.664 14.336-32 32-32s32 14.336 32 32l0 101.888c37.184 13.248 64 48.384 64 90.112C575.232 340.992 532.288 384 479.232 384z"  horiz-adv-x="1024" />

    
    <glyph glyph-name="hrrenshirenshiguanli380" unicode="&#59006;" d="M640.256 176.256c0-15.872 12.8-28.672 28.672-28.672l260.224 0c15.872 0 28.672 12.8 28.672 28.672s-12.8 28.672-28.672 28.672L668.928 204.928C653.056 205.056 640.256 192 640.256 176.256zM929.152 88.192 668.928 88.192c-15.872 0-28.672-12.8-28.672-28.672s12.8-28.672 28.672-28.672l260.224 0c15.872 0 28.672 12.8 28.672 28.672C957.824 75.136 945.024 88.192 929.152 88.192zM929.152-28.8 668.928-28.8c-15.872 0-28.672-12.8-28.672-28.672s12.8-28.672 28.672-28.672l260.224 0c15.872 0 28.672 12.8 28.672 28.672S945.024-28.8 929.152-28.8zM129.024-16.128c-4.48 9.984-5.76 27.776-5.376 36.608 0 0.128 0 0.384 0 0.512 3.968 199.04 170.624 360.96 371.456 360.96 106.24 0 203.008-45.312 271.104-117.632l75.52 0c-13.824 18.688-29.184 36.608-46.208 53.12-49.152 48-108.16 82.688-172.16 102.656 64.768 42.112 107.776 115.072 107.776 198.016 0 130.176-105.856 236.032-236.032 236.032s-236.032-105.856-236.032-236.032c0-82.944 43.008-155.904 107.776-198.016-64.128-19.84-123.008-54.528-172.16-102.4C114.176 239.232 68.48 134.4 66.176 22.528c-0.128-4.992-0.768-37.376 10.496-62.336 16.64-36.736 57.984-46.08 79.488-45.696l424.448-0.384 0 57.344L155.776-28.16C155.648-28.16 134.016-27.264 129.024-16.128zM316.416 618.112c0 98.56 80.128 178.688 178.688 178.688s178.688-80.128 178.688-178.688-80.128-178.688-178.688-178.688S316.416 519.552 316.416 618.112z"  horiz-adv-x="1024" />

    
    <glyph glyph-name="kehuguanli" unicode="&#59014;" d="M179.533-27.898c-16.695 0-30.28 13.477-30.28 30.042l0 73.633c0 73.549 22.248 144.358 64.337 204.765 41.103 58.99 98.167 104.2 165.023 130.736l11.004 4.369-9.333 7.286c-52.604 41.058-82.773 102.408-82.773 168.321 0 118.071 96.718 214.131 215.602 214.131 118.88 0 215.599-96.061 215.599-214.131 0-65.911-30.169-127.261-82.773-168.321l-9.333-7.286 11.003-4.369c66.864-26.537 123.926-71.74 165.026-130.721 42.088-60.401 64.334-131.216 64.332-204.778l0-73.633c0-16.565-13.583-30.042-30.28-30.042L179.533-27.898 179.533-27.898zM513.149 377.121c-167.257 0-303.328-135.185-303.328-301.344l0-43.599 606.583 0 0 43.599C816.404 241.935 680.364 377.121 513.149 377.121L513.149 377.121zM513.114 745.308c-85.487 0-155.039-69.111-155.039-154.061 0-84.947 69.551-154.056 155.039-154.056 85.487 0 155.038 69.108 155.038 154.056C668.153 676.198 598.603 745.308 513.114 745.308L513.114 745.308zM31.28 82.56C14.585 82.56 1 96.036 1 112.598l0 56.959c0 108.049 59.671 205.87 155.726 255.289l7.884 4.057-5.977 6.55c-29.948 32.813-46.442 75.054-46.442 118.94 0 96.757 78.415 175.664 175.428 177.321-0.619-0.988-1.233-1.978-1.842-2.972-14.949-19.55-26.523-41.142-34.441-64.232-47.146-16.638-78.582-60.463-78.582-110.115 0-45.844 27.198-87.734 69.289-106.719l0.199-0.09 0.203-0.077c12.537-4.716 20.638-15.59 20.638-27.703 0-12.412-8.711-23.674-21.711-28.102l-6.939-1.647C132.611 364.517 61.556 273.852 61.556 169.557l0-26.926 35.378 0c-3.603-19.783-5.606-39.925-5.973-60.073L31.279 82.558 31.28 82.56zM934.866 82.565c-0.366 20.149-2.37 40.29-5.972 60.067l35.373 0 0 26.926c0 104.297-71.055 194.961-172.796 220.479l-7.017 1.666c-12.993 4.427-21.703 15.688-21.703 28.103 0 12.11 8.102 22.985 20.635 27.703l0.203 0.075 0.196 0.09c42.095 18.985 69.294 60.875 69.294 106.719 0 49.657-31.439 93.481-78.592 110.115-7.911 23.095-19.487 44.687-34.437 64.241-0.608 0.995-1.224 1.982-1.843 2.968 97.016-1.657 175.43-80.566 175.43-177.326 0-43.894-16.492-86.134-46.441-118.939l-5.979-6.55 7.889-4.059c96.056-49.418 155.724-147.239 155.719-255.289l0-56.96c0-16.558-13.581-30.03-30.277-30.03l-59.681 0L934.866 82.565z"  horiz-adv-x="1025" />

    
    <glyph glyph-name="gou" unicode="&#58960;" d="M1396.363636 774.981818c0 0-223.418182-74.472727-484.072727-372.363636-242.036364-269.963636-297.890909-381.672727-390.981818-530.618182C512-118.690909 372.363636 151.272727 0 346.763636l195.490909 186.181818c0 0 176.872727-121.018182 297.890909-344.436364 0 0 307.2 474.763636 902.981818 707.490909L1396.363636 774.981818 1396.363636 774.981818zM1396.363636 774.981818"  horiz-adv-x="1397" />

    
    <glyph glyph-name="kehu2" unicode="&#58920;" d="M1023.445368 34.340365c0 149.362796-89.360214 277.04685-215.687364 329.140299 61.193711 42.330084 101.504812 114.445542 101.504812 196.358133 0 111.830995-75.128071 205.427696-175.939081 229.785453-0.958838 0.231267-1.820462 0.099261-2.681062-0.231267-1.158383 0.099261-2.251274 0.364297-3.408633 0.364297-21.545712 0-39.020712-18.10331-39.020712-40.410362 0-20.156062 14.297634-36.703947 32.929993-39.748283 3.309372-1.423419 7.645121-2.482541 7.810896-2.548032 58.414411-20.519336 100.446713-77.677127 100.446713-145.093563 0-75.160817-52.29197-137.64594-121.263831-150.718677-0.099261 0-0.164752-0.198521-0.265036-0.231267-22.935362-1.52268-41.170678-21.049409-41.170678-45.176922 0-24.491811 18.765389-44.349067 42.197054-45.308929 0.165776-0.066515 0.297782-0.330528 0.463558-0.364297 138.672316-14.628162 236.999762-136.952138 236.999762-285.817608 0-22.042016 17.243733-39.914058 38.524408-39.914058 20.784372 0 37.564547 17.044188 38.391379 38.324864 0.032746 0.231267 0.165776 0.397043 0.165776 0.595564 0 0.065492-0.033769 0.132006-0.033769 0.231267l0 0c0 0.265036 0.033769 0.497327 0.033769 0.728594L1023.443321 34.340365 1023.445368 34.340365 1023.445368 34.340365 1023.445368 34.340365 1023.445368 34.340365 1023.445368 34.340365zM561.589418 356.828151c73.042573 50.702776 121.197316 136.918369 121.197316 234.816027 0 156.01531-122.157177 282.508235-272.810363 282.508235-150.686954 0-272.844132-126.492926-272.844132-282.508235 0-97.930403 48.154743-184.113251 121.197316-234.816027C107.313098 294.442288 0.511653 141.703605 0.511653-36.98203c0-10.061147 0.562818-19.956517 1.291412-29.819143l0.065492 0c0-21.744233 17.044188-39.35124 38.027082-39.35124 21.016663 0 38.028105 17.607006 38.028105 39.35124 0 1.223874-0.231267 2.38328-0.364297 3.607154-0.727571 8.671497-1.356904 17.34197-1.356904 26.211988 0 190.865026 149.428288 345.588923 333.741084 345.588923 184.344518 0 333.773829-154.723897 333.773829-345.588923 0-9.200546-0.629333-18.269086-1.423419-27.238364 0-0.463558-0.13303-0.893346-0.13303-1.356904 0-0.164752 0.032746-0.297782 0.032746-0.429789 0-0.265036 0-0.529049-0.032746-0.76134l0.13303 0c0.62831-21.181415 17.309224-38.192857 37.894052-38.192857 20.585851 0 37.266765 17.011442 37.895075 38.192857l0.099261 0c0.694825 9.829879 1.191128 19.757996 1.191128 29.786397C819.407322 141.703605 712.606901 294.442288 561.589418 356.828151L561.589418 356.828151 561.589418 356.828151 561.589418 356.828151zM409.976372 388.732791c-108.256586 0-195.994859 90.848101-195.994859 202.911386 0 112.063285 87.738273 202.912409 195.994859 202.912409 108.22384 0 195.962114-90.848101 195.962114-202.912409C605.938486 479.581915 518.200212 388.732791 409.976372 388.732791L409.976372 388.732791 409.976372 388.732791 409.976372 388.732791z"  horiz-adv-x="1039" />

    
    <glyph glyph-name="icon5" unicode="&#58988;" d="M625.791649 355.891825 502.815827 355.891825l0 58.758242 122.975822 0c18.234293 0 33.019021 14.781658 33.019021 33.019021 0 18.235316-14.783705 33.019021-33.019021 33.019021L518.311753 480.688109 649.137357 611.513714c12.895705 12.893658 12.894681 33.799804 0 46.693462-12.894681 12.894681-33.800827 12.894681-46.694485 0L469.797829 525.563156 337.15381 658.207176c-12.894681 12.894681-33.800827 12.894681-46.694485 0-12.894681-12.893658-12.896728-33.799804 0-46.693462L421.283906 480.688109l-107.47785 0c-18.235316 0-33.019021-14.783705-33.019021-33.019021 0-18.23634 14.782681-33.019021 33.019021-33.019021l122.971729 0 0-58.758242L313.806055 355.891825c-18.235316 0-33.019021-14.779611-33.019021-33.017998 0-18.235316 14.782681-33.019021 33.019021-33.019021l122.971729 0 0-154.171312c0-18.23634 14.783705-33.019021 33.019021-33.019021 18.235316 0 33.019021 14.781658 33.019021 33.019021l0 154.171312 122.975822 0c18.234293 0 33.019021 14.782681 33.019021 33.019021C658.809647 341.112214 644.025942 355.891825 625.791649 355.891825zM1021.889943 178.570257c-4.765537 17.600867-22.900569 28.005844-40.501436 23.237237l-90.394776-24.479531c31.095205 62.721507 48.600905 133.320425 48.600905 207.944006 0 259.044848-210.749912 469.795782-469.797829 469.795782-259.046894 0-469.797829-210.750935-469.797829-469.795782 0-259.047918 210.750935-469.800899 469.797829-469.800899 83.934644 0 162.78755 22.146393 231.055376 60.871369 0.352017 0.185218 0.693802 0.385786 1.036609 0.583285 0.300852 0.169869 0.603751 0.338714 0.905626 0.508583l-0.017396 0.030699c9.422603 5.815449 15.72003 16.202007 15.72003 28.085662 0 18.235316-14.781658 33.019021-33.019021 33.019021-5.571902 0-10.815323-1.393743-15.421224-3.833305l-0.014326 0.023536c-59.051931-33.868365-127.426181-53.251831-200.246697-53.251831C247.163239-18.489864 66.037019 162.639426 66.037019 385.272993 66.037019 607.905536 247.163239 789.031756 469.796806 789.031756s403.759787-181.125197 403.759787-403.758764c0-64.297398-15.122419-125.125789-41.977044-179.134867l-26.172079 96.646154c-4.76656 17.602913-22.899546 28.006867-40.501436 23.242354-17.600867-4.768607-28.005844-22.902616-23.239284-40.503483l46.131667-170.34876c2.289136-8.452509 7.843642-15.650445 15.437597-20.008706 5.045923-2.894933 10.717086-4.378727 16.435321-4.378727 2.888793 0 5.79089 0.379647 8.628518 1.14815l170.350806 46.134737C1016.250502 142.834358 1026.657526 160.967344 1021.889943 178.570257z"  horiz-adv-x="1039" />

    
    <glyph glyph-name="qian3" unicode="&#58951;" d="M928.045089 472.110757c27.492144 18.240433 29.435403 34.236755 29.435403 58.337663L957.480492 675.061029c0 46.619784-37.895075 84.467787-84.429925 84.467787L149.901567 759.528815c-46.529733 0-84.424808-37.848003-84.424808-84.467787l0-144.611585c0-24.101931 2.292206-43.709501 31.109532-59.219753 19.650549-9.252735 65.299215-35.867906 65.299215-85.481883 0-56.357566-33.486672-74.820056-62.568011-84.688821l-2.641153-1.231037c-28.200272-17.627473-31.198559-46.882773-31.198559-58.648748l0-144.56963c0-46.571688 37.895075-84.509742 84.424808-84.509742l723.149001 0c46.534849 0 84.429925 37.938054 84.429925 84.509742L957.481516 241.178177c0 31.241538-8.638751 42.786479-30.671557 59.087747-49.703005 25.559119-65.741283 46.444798-65.741283 85.481883C861.067652 424.920992 875.964944 444.175521 928.045089 472.110757zM668.251182 397.908778c0-13.350053-10.840906-24.233937-24.149003-24.233937l-96.318696 0 0-23.880897 96.318696 0c13.308097 0 24.149003-10.883885 24.149003-24.233937l0-24.059975c0-13.350053-10.840906-24.323988-24.149003-24.323988l-96.318696 0 0-72.130807c0-13.393032-10.840906-24.187889-24.233937-24.187889l-24.14491 0c-13.397125 0-24.239054 10.794857-24.239054 24.187889l0 72.130807-96.318696 0c-13.302981 0-24.14491 10.973936-24.14491 24.323988l0 24.059975c0 13.350053 10.841929 24.233937 24.14491 24.233937l96.318696 0 0 23.880897-96.318696 0c-13.302981 0-24.14491 10.883885-24.14491 24.233937l0 24.058952c0 13.350053 10.841929 24.234961 24.14491 24.234961l63.364143 0-80.110549 85.962837c-8.459672 9.388834-8.459672 24.016996 0 33.311687l15.335267 16.703427c8.459672 9.162684 24.852014 9.337669 33.311687 0l100.638071-107.999736 100.638071 108.083647c8.375761 9.1678 24.941042 9.1678 33.311687-0.084934l15.510252-16.835434c8.459672-9.384741 8.459672-24.101931 0-33.396621L581.006142 446.202691l63.096037 0c13.308097 0 24.149003-10.883885 24.149003-24.234961L668.251182 397.908778z"  horiz-adv-x="1024" />

    
    <glyph glyph-name="cardb" unicode="&#58933;" d="M827.389622 703.659367 192.189695 703.659367c-71.761394 0-130.145106-55.656601-130.145106-124.065643l0-65.462944 895.488091 0 0 65.462944C957.533704 648.002766 899.151016 703.659367 827.389622 703.659367zM62.04459 125.65714c0-68.411089 58.382689-124.066667 130.145106-124.066667l635.199926 0c71.761394 0 130.144082 55.656601 130.144082 124.066667L957.533704 387.240811 62.04459 387.240811 62.04459 125.65714zM602.391195 192.812633l186.241728 0c18.650779 0 33.769105-15.118326 33.769105-33.769105s-15.118326-33.769105-33.769105-33.769105l-186.241728 0c-18.650779 0-33.769105 15.118326-33.769105 33.769105S583.740416 192.812633 602.391195 192.812633z"  horiz-adv-x="1024" />

    
    <glyph glyph-name="wancheng1" unicode="&#58919;" d="M951.428148 612.312916 415.268912 68.356087 72.571852 416.038694 158.431336 503.732965l257.471003-261.217327 450.577069 457.129298L951.428148 612.312916z"  horiz-adv-x="1024" />

    
    <glyph glyph-name="guanlian" unicode="&#59055;" d="M516.869 885.21c-277.252 0-502.014-224.764-502.014-502.014s224.762-502.014 502.014-502.014c277.249 0 502.009 224.764 502.009 502.014C1018.877 660.448 794.118 885.21 516.869 885.21zM489.184 154.127l-30.18-29.215c-27.422-26.535-63.455-39.785-99.46-39.785-36.017 0-72.02 13.255-99.427 39.775-26.657 25.79-41.317 60.085-41.317 96.57 0 36.51 14.662 70.815 41.302 96.62l111.042 107.422c69.032 66.777 148.285 76.37 201.934 24.48 14.46-14.005 14.55-36.815 0.18-50.922-14.37-14.125-37.745-14.217-52.24-0.185-31.542 30.505-74.822-2.25-97.835-24.51l-111.04-107.43c-12.565-12.135-19.457-28.295-19.457-45.47 0-17.16 6.892-33.31 19.457-45.455 26.135-25.295 68.665-25.26 94.797 0l30.182 29.22c14.477 13.995 37.87 13.925 52.242-0.185C503.739 190.942 503.661 168.132 489.184 154.127zM773.618 429.311l-118.455-114.58c-36.605-35.425-75.07-53.315-111.505-53.315-29.75 0-58.152 11.93-83.002 35.99-14.492 14.02-14.582 36.825-0.185 50.93 14.372 14.115 37.75 14.21 52.227 0.19 10.835-10.49 36.27-35.095 90.405 17.315l118.49 114.592c12.54 12.152 19.45 28.315 19.45 45.487 0 17.16-6.9 33.305-19.485 45.47-23.585 22.812-59.75 33.905-87.38 7.155l-37.58-36.387c-14.48-14.002-37.86-13.925-52.245 0.185-14.385 14.122-14.29 36.922 0.2 50.94l37.595 36.385c53.31 51.597 133.865 48.565 191.469-7.17 26.64-25.797 41.32-60.085 41.32-96.577C814.938 489.411 800.258 455.109 773.618 429.311z"  horiz-adv-x="1024" />

    
    <glyph glyph-name="kehuguanli2" unicode="&#58946;" d="M643.741463 470.063121c48.924269 39.563064 80.217996 100.063997 80.217996 167.883615 0 119.187543-96.620571 215.807091-215.807091 215.807091s-215.807091-96.620571-215.807091-215.807091c0-70.774927 34.069957-133.591601 86.702688-172.945911-125.351939-43.853787-218.120786-161.64554-218.120786-389.368008 0-37.59627 12.735046-42.537815 149.042501-42.537815 48.641837 0 113.039519 0.630357 198.182688 0.630357 102.618169 0 176.999227-1.166569 230.823086-1.166569 119.801527 0 137.656173 5.782703 137.656173 43.074028C876.631628 317.87804700000004 789.400914 431.797609 643.741463 470.063121zM508.152369 789.018453c83.301218 0 151.071717-67.7705 151.071717-151.071717s-67.7705-151.071717-151.071717-151.071717-151.071717 67.7705-151.071717 151.071717S424.852174 789.018453 508.152369 789.018453zM738.975455 97.29416300000003c-22.462594 0-48.529273 0.205685-78.764901 0.442068-42.158169 0.330528-92.343151 0.723477-152.058185 0.723477-48.613184 0-90.479711-0.204661-126.524648-0.381693-27.057239-0.132006-50.810223-0.248663-71.657017-0.248663-19.688411 0-58.048067 0-83.932598 1.614777 6.724145 210.395848 103.918791 321.387731 282.115286 321.387731 153.34755 0 295.571762-39.498596 303.365262-321.908594C787.664364 97.29416300000003 753.10015 97.29416300000003 738.975455 97.29416300000003zM244.149603 420.271088l8.321526 0c16.645099 4.160763 24.966625 16.644075 24.966625 33.288151 0 16.645099-8.321526 29.128411-24.966625 33.289174-37.449937 16.644075-62.416562 54.094012-62.416562 95.705736 0 49.933249 29.128411 87.382163 74.898851 104.026238 8.322549 24.966625 20.805862 45.772486 33.289174 62.416562 0 4.160763 4.160763 8.322549 8.322549 12.483312-4.161786 0-4.161786 0-8.322549 0-99.865475 0-178.926112-79.059614-178.926112-178.926112 0-45.772486 16.644075-87.382163 45.771463-120.671337C73.545016 416.109302 11.128455 320.40459 11.128455 212.21656499999995l0-54.094012c0-20.805862 16.644075-37.449937 37.449937-37.449937l62.416562 0c0 24.966625 4.160763 49.933249 8.322549 70.737064L81.867566 191.40967999999998l0 20.805862C81.867566 312.08204 148.443867 395.304464 244.149603 420.271088L244.149603 420.271088 244.149603 420.271088M855.827813 466.041528c29.127388 33.289174 45.771463 74.898851 45.771463 120.671337 0 95.704712-79.059614 178.926112-178.926112 178.926112-4.160763 0-4.160763 0-8.322549 0 4.161786-8.321526 8.322549-12.483312 8.322549-16.644075 12.483312-20.805862 24.966625-41.6107 33.289174-62.416562 41.6107-12.483312 74.898851-54.094012 74.898851-99.865475 0-41.6107-24.966625-79.059614-62.416562-95.704712-12.483312-4.160763-24.966625-16.644075-24.966625-33.288151 0-16.645099 12.483312-29.128411 24.966625-33.289174l8.321526 0c95.704712-24.966625 162.282037-108.188025 162.282037-203.892737l0-20.805862L901.598252 199.73222999999996c4.161786-24.966625 8.322549-45.772486 8.322549-70.739111l62.416562 0c20.805862 0 37.449937 16.645099 37.449937 37.449937l0 54.095036C1009.786277 320.40459 947.370739 416.109302 855.827813 466.041528L855.827813 466.041528 855.827813 466.041528M855.827813 466.041528L855.827813 466.041528z"  horiz-adv-x="1024" />

    
    <glyph glyph-name="wuuiconsuotanhao" unicode="&#58910;" d="M512 896C230.4 896 0 665.6 0 384s230.4-512 512-512 512 230.4 512 512S793.6 896 512 896zM512 18.285714c-40.228571 0-73.142857 32.914286-73.142857 73.142857s32.914286 73.142857 73.142857 73.142857 73.142857-32.914286 73.142857-73.142857S552.228571 18.285714 512 18.285714zM585.142857 384c0-40.228571-32.914286-73.142857-73.142857-73.142857s-73.142857 32.914286-73.142857 73.142857L438.857143 676.571429c0 40.228571 32.914286 73.142857 73.142857 73.142857s73.142857-32.914286 73.142857-73.142857L585.142857 384z"  horiz-adv-x="1024" />

    
    <glyph glyph-name="shezhi" unicode="&#58915;" d="M512 556.396395C416.927691 556.396395 339.588255 479.055936 339.588255 384s77.339436-172.395372 172.411745-172.395372c18.889209 0 37.434587 3.01773 55.166437 8.990768 15.074324 5.097088 23.173792 21.453614 18.075681 36.527938-5.066389 15.089673-21.422915 23.11137-36.527938 18.107403-11.758812-3.971451-24.112164-5.988388-36.715203-5.988388-63.266929 0-114.743324 51.476395-114.743324 114.758674s51.476395 114.758674 114.743324 114.758674 114.743324-51.476395 114.743324-114.758674c0-8.475022-0.87595-16.778128-2.689249-24.87862-0.844228-3.90903-1.907443-7.708566-3.158946-11.44568-5.003967-15.105023 3.158946-31.414477 18.263969-36.433794 15.199167-5.003967 31.429827 3.174296 36.465516 18.263969 1.876744 5.676279 3.502777 11.509125 4.753257 17.263176 2.65855 12.009522 4.033873 24.550139 4.033873 37.230949C684.410722 479.055936 607.071286 556.396395 512 556.396395zM950.84691 460.739778c-2.282996 13.088086-13.19758 22.923082-26.457582 23.814382-47.879474 3.206018-90.724281 29.850865-114.64918 71.272253-23.955598 41.484833-25.550932 91.991134-4.284583 135.102001 5.879917 11.915377 2.877537 26.301016-7.317663 34.83846-39.185464 32.868595-84.001159 58.653865-133.225257 76.667124-12.508895 4.613064-26.488281 0.01535-33.869389-11.024078-26.707268-39.889499-71.209832-63.703881-119.058606-63.703881-47.817052 0-92.319615 23.814382-119.026884 63.703881-7.411807 11.039427-21.391193 15.60542-33.869389 11.024078-49.193399-17.997909-94.039793-43.798529-133.25698-76.651774-10.1952-8.537444-13.228279-22.939455-7.317663-34.854832 21.297049-43.110867 19.702738-93.617168-4.252861-135.11735-23.923876-41.406039-66.768683-68.050885-114.64918-71.256904-13.260002-0.8913-24.174586-10.727319-26.457582-23.814382-4.722558-27.161616-7.036253-52.258201-7.036253-76.729545 0-24.518417 2.314719-49.678446 7.036253-76.901461 2.282996-13.103436 13.19758-22.939455 26.457582-23.830755 47.879474-3.206018 90.724281-29.850865 114.64918-71.241554 23.923876-41.46846 25.550932-91.944062 4.315282-135.054929-5.848195-11.915377-2.815115-26.301016 7.349385-34.82311 39.247886-32.853245 84.063581-58.637492 133.287679-76.620052 12.353352-4.550643 26.39516-0.01535 33.806967 11.008728 26.707268 39.811728 71.179133 63.579037 118.964462 63.579037 47.817052 0 92.287893-23.768333 118.996185-63.579037 5.472642-8.146541 14.542204-12.759605 23.923876-12.759605 3.315512 0 6.661723 0.562818 9.882068 1.750877 49.225121 17.98256 94.039793 43.767829 133.287679 76.620052 10.163477 8.522094 13.19758 22.907733 7.349385 34.82311-21.234627 43.110867-19.608593 93.586468 4.315282 135.054929 23.923876 41.406039 66.768683 68.035536 114.617457 71.241554 13.228279 0.8913 24.174586 10.710946 26.457582 23.783683 4.753257 27.176966 7.067976 52.335972 7.067976 76.948533C957.883163 408.481577 955.568445 433.579185 950.84691 460.739778zM897.18064 337.866287c-57.481156-10.617825-107.768469-45.753043-137.353274-97.010451l0-0.01535c-29.616528-51.28913-34.870182-112.413256-15.292288-167.564343-24.518417-18.294668-51.257407-33.650401-79.935564-45.847188-37.934984 44.408419-93.445252 70.333882-152.614863 70.333882-59.138912 0-114.64918-25.925463-152.584164-70.333882-28.678156 12.196787-55.417147 27.552519-79.935564 45.847188 19.576871 55.151088 14.323217 116.275213-15.293311 167.579693-29.584806 51.257407-79.873142 86.377276-137.384997 97.010451-2.032286 16.043395-3.00238 31.273261-3.00238 46.143946 0 14.808264 0.969071 29.975708 3.00238 45.956681 57.511855 10.633175 107.800191 45.753043 137.384997 97.026824 29.647227 51.351552 34.900881 112.52275 15.229866 167.704536 24.487717 18.279319 51.226708 33.635051 79.873142 45.847188 37.966707-44.502563 93.507674-70.475098 152.709007-70.475098 59.232033 0 114.774023 25.972535 152.74073 70.475098 28.646434-12.212136 55.385425-27.567869 79.84142-45.847188-19.640316-55.181787-14.385639-116.352985 15.261589-167.689187 29.584806-51.28913 79.873142-86.408999 137.384997-97.042173 2.033309-15.980973 3.00238-31.148417 3.00238-45.956681C900.214742 369.108848 899.213949 353.877959 897.18064 337.866287z"  horiz-adv-x="1024" />

    
    <glyph glyph-name="sousuo1" unicode="&#58924;" d="M936.444898 9.651057 773.85894 172.237015c62.556755 72.204485 96.698343 163.441443 96.698343 259.928984 0 106.210997-41.361013 206.064192-116.463502 281.167704-75.102489 75.101465-174.956707 116.462478-281.168728 116.462478-106.210997 0-206.064192-41.361013-281.165658-116.463502C116.656907 638.230192 75.296917 538.375973 75.296917 432.165999s41.361013-206.064192 116.463502-281.167704c75.101465-75.102489 174.955684-116.463502 281.165658-116.463502 87.748507 0 171.141822 28.255531 239.839437 80.420611l164.492378-164.492378c8.172123-8.172123 18.883069-12.259208 29.594015-12.259208s21.421892 4.087085 29.594015 12.259208C952.789145-33.191704 952.789145-6.69319 936.444898 9.651057zM159.000294 432.165999c0 173.099407 140.826376 313.925782 313.924759 313.925782 173.099407 0 313.926806-140.826376 313.926806-313.925782s-140.827399-313.924759-313.926806-313.924759C299.82667 118.240217 159.000294 259.066593 159.000294 432.165999z"  horiz-adv-x="1024" />

    
    <glyph glyph-name="download-1-copy" unicode="&#58929;" d="M507.493 224.604c-19.395 0-37.647 7.526-51.37 21.201l-202.223 202.256c-7.65 7.65-11.863 17.822-11.863 28.639s4.212 20.99 11.863 28.639 17.821 11.861 28.639 11.861c10.817 0 20.99-4.21 28.639-11.861l196.302-196.321 196.348 196.321c7.65 7.65 17.821 11.861 28.639 11.861s20.99-4.21 28.639-11.861c15.794-15.794 15.794-41.484 0-57.283l-202.218-202.202c-13.707-13.706-31.956-21.25-51.395-21.25zM507.499 232.67c-22.331 0-40.5 18.163-40.5 40.505v514.196c0 22.334 18.163 40.505 40.5 40.505s40.505-18.164 40.505-40.505v-514.196c0-22.337-18.164-40.505-40.505-40.505zM207.55-88.711c-93.221 0-169.055 75.837-169.055 169.055v471.348c0 93.22 75.837 169.055 169.055 169.055 22.331 0 40.5-18.163 40.5-40.5s-18.163-40.5-40.5-40.5c-48.556 0-88.052-39.5-88.052-88.052v-471.348c0-48.551 39.499-88.052 88.052-88.052h599.901c48.551 0 88.052 39.5 88.052 88.052v471.348c0 48.551-39.5 88.052-88.052 88.052-22.331 0-40.5 18.163-40.5 40.5s18.163 40.5 40.5 40.5c93.221 0 169.055-75.837 169.055-169.055v-471.348c0-93.221-75.837-169.055-169.055-169.055h-599.901z"  horiz-adv-x="1024" />

    
    <glyph glyph-name="tongxunlu" unicode="&#58938;" d="M116.736 551.9359999999999h115.712c13.824 0 25.088 11.776 25.088 26.112S246.272 604.1600000000001 232.448 604.1600000000001H116.736c-13.824 0-25.088-11.776-25.088-26.112s11.264-26.112 25.088-26.112z m0-187.392h115.712c13.824 0 25.088 11.776 25.088 26.112 0 7.168-2.56 13.312-7.168 18.432-4.608 5.12-11.264 7.68-17.92 7.68H116.736c-13.824 0-25.088-11.776-25.088-26.112s11.264-26.112 25.088-26.112z m140.8-160.256c0 7.168-2.56 13.312-7.168 18.432-4.608 5.12-11.264 7.68-17.92 7.68H116.736c-13.824 0-25.088-11.776-25.088-26.112s11.264-26.112 25.088-26.112h115.712c13.824 0 25.088 11.776 25.088 26.112z m80.384-26.624l-3.584-8.192h55.808l1.536 3.072c26.112 49.664 88.064 85.504 150.016 88.064h12.8c61.952-2.56 123.904-38.4 150.016-88.064l1.536-3.072h55.808l-3.584 8.192c-10.24 24.576-28.16 49.152-51.712 70.144-18.432 16.384-40.448 31.232-63.488 41.984 22.528 14.848 41.984 34.816 55.808 57.344 16.384 27.136 25.088 58.368 25.088 90.624 0 97.792-79.36 177.152-177.152 177.152S369.664 535.552 369.664 437.76c0-32.256 8.704-63.488 25.088-90.624 13.824-23.04 33.28-43.008 55.808-57.344-23.04-11.264-44.544-25.6-62.976-41.984-21.504-20.992-39.424-45.568-49.664-70.144z m210.944 386.56c69.12 0 125.952-56.32 125.952-125.952 0-69.12-56.32-125.952-125.952-125.952-69.12 0-125.952 56.32-125.952 125.952 0 69.12 56.32 125.952 125.952 125.952zM774.656 161.79200000000003h-72.192l-4.096 7.168c-25.088 47.104-83.968 81.92-143.872 83.968H542.72c-59.392-2.048-118.272-36.864-143.36-83.968l-4.096-7.168H323.072l7.68 18.944c10.752 25.6 29.184 50.688 53.248 72.704 15.872 14.336 34.304 27.136 53.248 37.376-18.944 14.336-35.328 32.256-47.616 52.736-17.408 28.672-26.624 61.44-26.624 94.72 0 101.888 82.944 184.832 184.832 184.832 101.888 0 184.832-82.944 184.832-184.832 0-33.28-9.216-66.048-26.112-94.72-12.288-20.48-28.672-38.4-47.616-52.736 19.456-10.24 37.888-23.552 53.76-37.376 24.576-22.016 43.008-47.104 53.248-72.704l8.704-18.944z m-62.464 15.36h39.936c-9.728 23.04-26.624 45.056-48.64 65.024-17.92 15.872-39.424 30.208-61.44 40.96l-12.288 6.144 11.264 7.68c21.504 14.336 39.936 33.28 53.248 55.296 15.872 26.112 24.064 55.808 24.064 86.528 0 93.696-76.288 169.472-169.472 169.472C455.168 607.744 378.88 531.9680000000001 378.88 438.272c0-30.72 8.192-60.416 24.064-86.528 13.312-22.016 31.744-40.96 53.76-55.296l11.264-7.168-12.288-6.144c-22.528-10.752-43.52-25.088-61.44-40.96-22.016-19.456-38.4-41.984-48.128-64.512h39.936c27.648 51.2 91.648 88.576 156.16 91.136h12.8c65.024-2.56 129.024-40.448 157.184-91.648z m-479.744-6.656H116.736c-17.92 0-32.768 15.36-32.768 33.792 0 18.432 14.848 33.792 32.768 33.792h115.712c8.704 0 16.896-3.584 23.552-10.24 6.144-6.144 9.728-14.848 9.728-23.552-0.512-18.944-15.36-33.792-33.28-33.792z m-115.712 52.224c-9.728 0-17.408-8.192-17.408-18.432s7.68-18.432 17.408-18.432h115.712c9.728 0 17.408 8.192 17.408 18.432 0 5.12-2.048 9.728-5.12 13.312-3.072 3.584-7.68 5.12-12.288 5.12H116.736z m432.128 81.92c-73.728 0-133.632 59.904-133.632 133.632 0 73.728 59.904 133.632 133.632 133.632 73.728 0 133.632-59.904 133.632-133.632-0.512-73.728-60.416-133.632-133.632-133.632z m0 251.904c-65.024 0-118.272-52.736-118.272-118.272 0-65.024 52.736-118.272 118.272-118.272 65.024 0 118.272 52.736 118.272 118.272-0.512 65.024-53.248 118.272-118.272 118.272z m-316.416-199.68H116.736c-17.92 0-32.768 15.36-32.768 33.792s14.848 33.792 32.768 33.792h115.712c8.704 0 16.896-3.584 23.552-10.24 6.144-6.144 9.728-14.848 9.728-23.552-0.512-18.432-15.36-33.792-33.28-33.792zM116.736 409.088c-9.728 0-17.408-8.192-17.408-18.432s7.68-18.432 17.408-18.432h115.712c9.728 0 17.408 8.192 17.408 18.432 0 5.12-2.048 9.728-5.12 13.312-3.072 3.584-7.68 5.12-12.288 5.12H116.736z m115.712 135.168H116.736c-17.92 0-32.768 15.36-32.768 33.792 0 18.432 14.848 33.792 32.768 33.792h115.712c17.92 0 32.768-15.36 32.768-33.792 0-18.432-14.848-33.792-32.768-33.792zM116.736 596.48c-9.728 0-17.408-8.192-17.408-18.432s7.68-18.432 17.408-18.432h115.712c9.728 0 17.408 8.192 17.408 18.432s-7.68 18.432-17.408 18.432H116.736zM848.384 832.512H248.832c-52.224 0-94.72-42.496-94.72-94.72v-71.168H204.8V727.04c0 35.84 18.944 54.784 54.784 54.784h578.56c35.84 0 54.784-18.944 54.784-54.784v-672.768c0-35.84-18.944-54.784-54.784-54.784h-578.56c-35.84 0-54.784 18.944-54.784 54.784v60.416h-50.688v-70.144c0-52.224 42.496-94.72 94.72-94.72h599.552c52.224 0 94.72 42.496 94.72 94.72V737.792c0 52.224-42.496 94.72-94.72 94.72zM848.384-57.855999999999995H248.832c-56.32 0-102.4 46.08-102.4 102.4v77.824h66.048v-68.096c0-31.744 15.36-47.104 47.104-47.104h578.56c31.744 0 47.104 15.36 47.104 47.104V727.04c0 31.744-15.36 47.104-47.104 47.104h-578.56c-31.744 0-47.104-15.36-47.104-47.104v-68.096H146.432V737.792c0 56.32 46.08 102.4 102.4 102.4h599.552c56.32 0 102.4-46.08 102.4-102.4v-692.736c0-56.832-45.568-102.912-102.4-102.912zM161.792 107.00800000000004v-62.464c0-48.128 38.912-87.04 87.04-87.04h599.552c48.128 0 87.04 38.912 87.04 87.04V737.792c0 48.128-38.912 87.04-87.04 87.04H248.832c-48.128 0-87.04-38.912-87.04-87.04v-63.488h35.328V727.04c0 40.448 22.016 62.464 62.464 62.464h578.56c40.448 0 62.464-22.016 62.464-62.464v-672.768c0-40.448-22.016-62.464-62.464-62.464h-578.56c-40.448 0-62.464 22.016-62.464 62.464v52.736h-35.328z"  horiz-adv-x="1024" />

    
    <glyph glyph-name="integral" unicode="&#58955;" d="M512 864.77655635C275.30313522 864.77655635 82.76587691 770.4137273700001 82.76587691 654.41749764L82.76587691 113.61684070000001C82.76587691-2.345049769999946 292.47249988-96.74221802 529.16936466-96.74221802 765.86622945-96.74221802 941.23412309-2.345049769999946 941.23412309 113.61684070000001L941.23412309 654.41749764C941.23412309 770.4137273700001 748.69686478 864.77655635 512 864.77655635ZM494.83063534 796.09909676C717.34560469 796.09909676 872.55666352 694.66248875 872.55666352 658.70983926 872.55666352 622.75718884 751.68433401 555.69364943 529.16936466 555.69364943 306.65439531 555.69364943 151.44333648 622.75718884 151.44333648 658.70983926 151.44333648 694.66248875 272.31566599 796.09909676 494.83063534 796.09909676ZM872.55666352 109.32449999999994C872.55666352 73.37184955999999 751.68433401-28.030419179999967 529.16936466-28.030419179999967 306.65439531-28.030419179999967 151.44333648 73.33751125000003 151.44333648 109.29016074000003L151.44333648 281.01814943C230.11336672 231.98244319000003 392.36386531 212.30635056999995 529.16936466 212.30635056999995 666.00920328 212.30635056999995 793.88663328 231.98244319000003 872.55666352 281.01814943L872.55666352 109.32449999999994ZM529.16936466 281.01814943C306.65439531 281.01814943 151.44333648 348.08168883999997 151.44333648 384L151.44333648 555.69364943C230.11336672 506.69228151 392.36386531 487.01618984 529.16936466 487.01618984 666.00920328 487.01618984 793.88663328 506.69228151 872.55666352 555.69364943L872.55666352 384C872.55666352 348.08168883999997 751.68433401 281.01814943 529.16936466 281.01814943Z"  horiz-adv-x="1024" />

    
    <glyph glyph-name="weibiaoti2fuzhi01" unicode="&#58926;" d="M960 172.8 960 172.8c0 6.4 0 6.4 0 12.8l0 0 0 19.2c0 19.2-19.2 25.6-32 25.6-19.2 0-25.6-19.2-25.6-32l0-32c0 0 0 0 0-6.4-6.4-96-179.2-166.4-390.4-166.4-211.2 0-384 76.8-390.4 166.4 0 0 0 0 0 6.4l0 32c0 19.2-12.8 32-25.6 32-19.2 0-32-12.8-32-25.6l0-32c0 0 0-6.4 0-6.4 0-128 198.4-230.4 448-230.4C761.6-64 960 38.4 960 172.8 960 166.4 960 166.4 960 172.8 960 172.8 960 172.8 960 172.8M960 390.4l0 32c0 19.2-19.2 25.6-32 25.6-19.2 0-25.6-19.2-25.6-32l0-6.4 0 0c0 0 0 0 0 0l0-19.2c0 0 0-6.4 0-6.4C896 288 723.2 211.2 512 211.2c-211.2 0-390.4 76.8-390.4 172.8 0 0 0 0 0 6.4l0 32C128 428.8 115.2 441.6 102.4 448 83.2 448 70.4 435.2 64 422.4l0-32C64 390.4 64 384 64 384c0 0 0 0 0 0 0-128 198.4-230.4 448-230.4 249.6 0 448 102.4 448 230.4C960 384 960 384 960 390.4 960 390.4 960 390.4 960 390.4zM512 774.4c217.6 0 390.4-76.8 390.4-172.8 0-96-172.8-172.8-390.4-172.8S121.6 505.6 121.6 601.6C121.6 697.6 294.4 774.4 512 774.4zM512 371.2c249.6 0 448 102.4 448 230.4 0 128-198.4 230.4-448 230.4C262.4 832 64 729.6 64 601.6 64 473.6 262.4 371.2 512 371.2z"  horiz-adv-x="1024" />

    
    <glyph glyph-name="jifen" unicode="&#58921;" d="M510.292 357.875c270.136 0 489.127 113.174 489.127 252.944 0 139.769-218.989 252.942-489.127 252.942s-489.126-113.174-489.126-252.943c0-139.77 218.988-252.943 489.126-252.943v0zM510.29 799.387c235.235 0 425.93-84.429 425.93-188.568 0-104.143-190.696-188.57-425.93-188.57-235.233 0-425.93 84.427-425.93 188.57 0 104.138 190.697 188.568 425.93 188.568v0zM999.259 382.586l-3.125 31.571c-1.751 17.691-17.511 30.612-35.201 28.861-17.69-1.752-30.612-17.511-28.859-35.203l0.956-9.668h-0.298c0.167-0.575 0.315-1.154 0.468-1.727l1.999-20.177c0.178-1.801 0.509-3.548 0.963-5.241-3.52-102.796-192.839-185.651-425.873-185.651-233.714 0-423.457 83.339-425.901 186.554 0.336 1.408 0.59 2.855 0.738 4.339l3.124 31.573c1.753 17.689-11.168 33.451-28.858 35.203-17.69 1.75-33.45-11.17-35.202-28.861l-3.124-31.571c-0.248-2.493-0.193-4.945 0.114-7.326-0.004-0.447-0.015-0.895-0.015-1.343 0-139.769 218.987-252.941 489.127-252.941 270.134 0 489.126 113.172 489.126 252.941 0 1.214-0.024 2.421-0.054 3.63 0.097 1.653 0.068 3.335-0.102 5.038v0zM999.259 145.778l-0.045 0.451c-0.214 4.079-0.594 8.138-1.176 12.168h-0.028l-1.876 18.957c-1.751 17.688-17.511 30.611-35.201 28.858-17.69-1.751-30.612-17.508-28.859-35.2l3.126-31.574c0.166-1.699 0.468-3.353 0.883-4.957-5.738-101.928-194.174-183.782-425.794-183.782-232.309 0-421.172 82.342-425.834 184.692 0.302 1.319 0.533 2.666 0.669 4.045l3.124 31.574c1.752 17.69-11.168 33.45-28.858 35.2-17.69 1.753-33.45-11.168-35.201-28.858l-3.125-31.576c-0.246-2.472-0.193-4.909 0.108-7.275 0.798-139.415 219.471-252.177 489.118-252.177 270.136 0 489.127 113.174 489.127 252.943 0 0.654-0.027 1.305-0.035 1.955 0.061 1.504 0.027 3.023-0.126 4.556v0z"  horiz-adv-x="1024" />

    
    <glyph glyph-name="svg45-copy" unicode="&#58975;" d="M545.997 808.789c-14.95 7.031-32.597 4.71-45.295-5.837l-244.838-203.776-195.311 0.785c-11.23 0-22.050-4.437-30.003-12.39-8.021-7.953-12.561-18.773-12.561-30.106l-0.887-340.548c0-11.332 4.437-22.187 12.425-30.174 7.953-8.055 18.807-12.527 30.14-12.527h197.461l243.61-203.025c7.782-6.485 17.51-9.83 27.238-9.83 6.144 0 12.288 1.331 18.057 4.028 14.95 6.997 24.508 22.016 24.508 38.537v766.327c0 16.486-9.557 31.505-24.542 38.537v0zM711.066 595.934c-20.992 9.933-45.943 0.887-56.149-20.002-10.172-20.958-1.365-46.319 19.456-56.798 2.697-1.399 66.458-34.543 66.458-128.922 0-100.83-59.631-134.246-61.611-135.339-21.026-10.513-29.559-36.113-19.046-57.139 7.509-14.95 22.494-23.552 38.161-23.552 6.383 0 12.902 1.434 18.978 4.471 4.437 2.253 108.646 56.183 108.646 211.558 0 149.914-110.217 203.503-114.893 205.722v0zM843.606 720.964c-19.627 12.595-45.67 6.861-58.505-12.732-12.766-19.593-7.168-45.943 12.356-58.846 4.608-3.038 113.664-77.346 113.664-262.315 0-185.378-104.619-259.755-108.783-262.588-19.593-13.073-24.849-39.458-11.81-59.051 8.192-12.288 21.709-18.944 35.465-18.944 8.090 0 16.316 2.355 23.586 7.168 5.973 3.959 146.671 100.42 146.671 333.449 0 233.472-146.398 329.865-152.644 333.858v0zM843.606 720.964z"  horiz-adv-x="1024" />

    
    <glyph glyph-name="tongzhi2" unicode="&#59054;" d="M554.028353 748.735453l-236.161882-140.420995 0-446.792874 236.161882-140.419396c44.678508-25.53169 82.975543-6.383672 82.975543 44.679707L637.003895 704.055746C637.003895 755.117526 598.707061 780.648616 554.028353 748.735453zM62.556371 512.573171l0-255.3097c0-51.06218 44.679108-95.741887 95.741287-95.741887l95.741287 0L254.038946 608.314459 158.297658 608.314459C107.235478 608.314459 62.556371 563.635351 62.556371 512.573171zM924.227358 416.831884l-127.654051 0c-19.150016 0-31.914362-12.765345-31.914362-31.913762 0-19.147418 12.764346-31.913762 31.914362-31.913762l127.654051 0c19.149017 0 31.913363 12.766344 31.913363 31.913762C956.140721 404.066539 943.376375 416.831884 924.227358 416.831884zM905.07954 91.311387l-108.506033 63.828524c-12.766344 6.381673-31.914362 6.381673-44.679707-12.765345-6.383672-12.766344-6.383672-31.913363 12.765345-44.679707l108.507232-63.829524c12.765345-6.381673 31.913163-6.381673 44.678508 12.766344C924.227358 59.398024 917.844885 84.928714 905.07954 91.311387zM790.189635 614.697731l108.507232 63.827125c12.764346 6.382673 19.148018 25.53109 12.764346 44.679108-6.381673 12.765345-25.529691 19.148417-38.294836 12.765345l-108.507232-63.827525c-12.765345-6.382073-19.149017-25.53069-12.765345-44.679108C758.275473 614.697731 777.423291 608.314459 790.189635 614.697731z"  horiz-adv-x="1024" />

    
    <glyph glyph-name="dagouyouquan" unicode="&#58928;" d="M512 831.616766C264.7878 831.616766 64.383234 631.2122 64.383234 384s200.404567-447.616766 447.616766-447.616766 447.616766 200.404567 447.616766 447.616766S759.2122 831.616766 512 831.616766zM749.24404 496.653285 490.771928 165.802156c-25.757381-32.969325-73.223154-32.730188-98.382691 0.833916L268.525094 331.872064c-14.827561 19.780982-10.813317 47.835721 8.967665 62.664303 19.780982 14.827561 47.836743 10.813317 62.664303-8.967665l101.483305-142.855154 237.057022 309.05485c15.21897 19.480527 43.349333 22.93576 62.830882 7.71679C761.008798 544.265198 764.46301 516.134834 749.24404 496.653285z"  horiz-adv-x="1024" />

    
    <glyph glyph-name="leijiyuyue" unicode="&#58889;" d="M359.808 831.616c-132.736-23.232-243.904-111.872-293.952-233.024a24.704 24.704 0 0 1 14.144-32.384 25.856 25.856 0 0 1 33.344 13.824c43.52 105.28 140.16 182.464 255.488 202.56a25.024 25.024 0 0 1 20.736 28.928 25.6 25.6 0 0 1-29.76 20.096z m295.296-49.024c115.392-20.096 212.032-97.344 255.488-202.56 5.312-12.8 20.224-18.944 33.344-13.824a24.832 24.832 0 0 1 14.272 32.384c-50.112 121.152-161.28 209.792-294.016 233.024a25.6 25.6 0 0 1-29.76-20.096 24.96 24.96 0 0 1 20.672-28.928z m-145.088-800c216.256 0 391.68 170.56 391.68 380.992s-175.424 380.992-391.68 380.992c-216.384 0-391.744-170.56-391.744-380.992s175.36-380.992 391.744-380.992z m0 49.472c-188.224 0-340.8 148.48-340.8 331.52 0 183.104 152.512 331.456 340.8 331.456s340.736-148.352 340.736-331.456c0-183.04-152.512-331.52-340.736-331.52z m236.608-26.816l63.744-61.952c9.984-9.728 26.176-9.728 36.16 0s9.984 25.408 0 35.136l-63.744 62.016a25.92 25.92 0 0 1-36.16 0 24.512 24.512 0 0 1 0-35.2zM486.656 611.392V363.52c0-13.76 11.456-24.832 25.664-24.832 14.08 0 25.536 11.072 25.536 24.832V611.392a25.344 25.344 0 0 1-25.536 24.896 25.216 25.216 0 0 1-25.664-24.896z m171.776-359.936L534.592 374.272a26.368 26.368 0 0 1-36.288 0.384 24.32 24.32 0 0 1-0.32-35.2l124.032-122.816a25.984 25.984 0 0 1 36.096-0.256 24.256 24.256 0 0 1 0.32 35.072z m-421.312-211.008l-63.744-62.016c-9.984-9.664-9.984-25.344 0-35.136s26.176-9.728 36.16 0l63.68 61.952a24.448 24.448 0 0 1 0 35.2 25.856 25.856 0 0 1-36.096 0z m0 0"  horiz-adv-x="1024" />

    
    <glyph glyph-name="wode" unicode="&#58884;" d="M955.923532-26.936233c1.231037-4.084015 2.091638-8.329712 2.091638-12.81691 0-24.64019-19.951401-44.602847-44.570101-44.602847-24.615631 0-44.567032 19.962657-44.567032 44.602847 0 0.049119 0.013303 0.094144 0.013303 0.143263l-1.166569 0c-11.606339 186.693006-166.216649 334.626243-355.781052 334.626243-189.568497 0-344.178807-147.933237-355.785146-334.626243l-1.055029 0c0.002047-0.049119 0.01535-0.094144 0.01535-0.143263 0-24.64019-19.952424-44.602847-44.570101-44.602847-24.615631 0-44.567032 19.962657-44.567032 44.602847 0 4.226255 0.775666 8.234545 1.873674 12.110829C80.799234 141.758863 187.807387 284.794557 337.194742 348.517881c-69.481468 50.685379-114.818025 132.506896-114.818025 225.116107 0 153.925718 124.738979 278.723026 278.622742 278.723026 153.874553 0 278.620695-124.796284 278.620695-278.723026 0-89.328491-42.174542-168.638815-107.507526-219.645512C828.733735 293.579641 942.290023 147.501658 955.923532-26.936233zM690.305989 573.633988c0 104.572684-84.903715 189.338253-189.632965 189.338253-104.737436 0-189.637058-84.765569-189.637058-189.338253 0-104.563474 84.899622-189.336206 189.637058-189.336206C605.402273 384.297782 690.305989 469.070514 690.305989 573.633988z"  horiz-adv-x="1024" />

    
    <glyph glyph-name="icon" unicode="&#58961;" d="M512 895.978511c-282.758945 0-511.978511-229.219565-511.978511-511.978511s229.219565-511.978511 511.978511-511.978511c282.752806 0 511.978511 229.219565 511.978511 511.978511S794.752806 895.978511 512 895.978511zM650.535193 96.658689c-30.110785-10.406001-53.770648-18.430768-71.779813-24.12035-17.759479-5.683443-38.609343-8.524141-62.269205-8.524141-36.280298 0-64.599274 8.057513-84.656075 23.679305-20.332071 16.089443-30.366611 35.953863-30.366611 60.573587 0 9.465582 0.76748 18.936281 2.297322 28.869514 1.567705 9.93221 4.121877 21.304212 7.225565 33.617655l37.547151 118.810966c3.353374 11.340279 1.453095 21.74628 3.78828 32.177863 2.316765 9.93221 3.333932 19.397792 3.333932 27.429723 0 15.647375 1.433652 26.053376-5.528923 31.742958-7.219425 6.15007-20.312628 4.383844-40.139186 4.383844-9.804297 0-19.832697-1.408069-29.854958-3.776-10.290367-2.847861-19.032472-0.607844-26.251897-3.455705l10.060123 36.926004c24.427342 8.997931 48.087205 16.562211 70.499657 22.719444 22.39301 6.617721 43.722804 9.458419 63.549362 9.458419 36.274158 0 64.09376-7.583722 83.631746-23.205515 19.551288-15.621792 41.169655-35.960003 41.169655-60.579727 0-5.215792-0.800225-14.213723-2.080382-27.461445-1.274016-12.773931-3.858888-24.613584-7.468089-35.486212L563.843762 222.119099c-2.847861-9.465582-5.65786-20.363793-7.986905-32.677237-2.585895-11.839653-3.858888-21.304212-3.858888-27.455305 0-15.621792 4.114714-26.494421 11.845793-32.184003 7.980765-5.65786 21.618367-8.498558 40.900525-8.498558 9.011234 0 19.321044 1.408069 30.878265 4.224208 11.564383 2.841721 19.800975 5.215792 24.946159 7.589862L650.535193 96.658689zM643.860167 576.644555c-17.240663-14.681374-38.315654-21.771863-62.768579-21.771863-24.434505 0-45.540196 7.090489-63.305815 21.771863-17.496489 14.213723-26.238594 31.710212-26.238594 52.547797 0 20.369933 8.742105 37.893029 26.238594 52.547797 17.765619 14.655791 38.872333 22.245653 63.305815 22.245653 24.421202 0 45.527916-7.55814 62.768579-22.245653 17.496489-14.681374 26.258037-32.209586 26.258037-52.547797C670.118204 608.355791 661.356656 590.858278 643.860167 576.644555z"  horiz-adv-x="1024" />

    
    <glyph glyph-name="gift" unicode="&#58941;" d="M85.931-54.016c0-24.576 7.125-31.317 29.44-31.317h353.365v469.589h-382.805v-438.272zM555.264-85.333h353.365c22.357 0 29.44 6.699 29.44 31.317l-0 438.272h-382.848v-469.589zM938.667 640h-213.333c51.499 11.733 105.899 49.707 112.597 94.293 7.851 50.859-52.565 127.957-125.653 118.187-87.424-12.117-151.509-89.259-196.736-149.077-44.885 58.667-103.381 127.189-187.179 147.115-81.152 19.2-136.747-64.939-135.253-116.992 1.451-44.245 52.608-81.835 105.557-93.525h-213.333c-26.368 0-42.667-14.848-42.667-42.667v-170.581l426.667-0.085v213.333h85.333v-213.333l426.667 0.085v170.581c0 27.819-16.341 42.667-42.667 42.667zM251.648 717.824c-14.763 16.427-4.779 38.741 4.48 55.595 17.024 29.696 40.747 47.744 81.152 30.933 56.32-23.509 97.792-73.216 131.584-117.803-71.552-7.893-178.304-10.965-217.216 31.275zM562.944 687.317c34.816 44.629 75.221 89.941 131.157 117.803 58.581 28.971 113.024-49.323 85.205-86.912-21.419-28.544-89.259-31.232-125.909-32.853-30.080-1.536-60.501-0.811-90.453 1.963z"  horiz-adv-x="1024" />

    
    <glyph glyph-name="queren" unicode="&#58906;" d="M511.64164-28.32783500000005c-228.816869 0-414.989937 186.16283-414.989937 414.989937S282.825796 801.6520390000001 511.64164 801.6520390000001c102.396724 0 200.763434-37.621642 276.975315-105.931176 9.47913-8.499272 10.266498-23.077351 1.755963-32.556481-8.488009-9.501656-23.054826-10.266498-32.556481-1.778489-67.723871 60.721519-155.148319 94.156494-246.174797 94.156494-203.396868 0-368.880285-165.482394-368.880285-368.880285S308.243749 17.78181600000005 511.64164 17.78181600000005c199.164126 0 361.089542 155.779033 368.60998 354.639065 0.49556 12.720751 11.032364 22.863359 23.910794 22.177356 12.720751-0.484298 22.649367-11.190043 22.15483-23.910794-8.465484-223.74966-190.609564-399.015278-414.675604-399.015278zM960.926616 568.461132l-65.210232 65.209209-350.956149-350.956149-244.56832 244.566273-65.210233-65.209209 309.745789-309.743741 0.032764 0.031741 0.03174-0.031741z"  horiz-adv-x="1024" />

    
    <glyph glyph-name="guanbi1" unicode="&#58883;" d="M561.036 394.101l287.258 285.766c6.32 6.273 10.231 14.962 10.231 24.567 0 9.535-3.856 18.171-10.092 24.429-6.268 6.325-14.959 10.243-24.565 10.243-9.538 0-18.174-3.862-24.429-10.105l-287.329-285.801-284.828 285.702c-13.479 13.515-35.414 13.582-48.997 0.071-13.55-13.515-13.582-35.45-0.071-49.031l284.761-285.628-287.12-285.596c-6.32-6.273-10.23-14.962-10.23-24.567 0-9.535 3.856-18.171 10.092-24.429 6.267-6.314 14.951-10.223 24.549-10.223 0.007 0 0.013 0 0.021 0 8.835 0 17.67 3.362 24.429 10.081l287.191 285.663 287.431-288.297c6.248-6.293 14.901-10.189 24.465-10.189 0.023 0 0.048 0 0.072 0 0.002 0 0.007 0 0.015 0 9.545 0 18.187 3.866 24.444 10.118 13.55 13.515 13.582 35.414 0.071 48.996l-287.368 288.231z"  horiz-adv-x="1024" />

    
    <glyph glyph-name="subtract" unicode="&#58894;" d="M768 384c0 35.3-28.7 64-64 64h-384c-35.3 0-64-28.7-64-64s28.7-64 64-64h384c35.3 0 64 28.7 64 64z"  horiz-adv-x="1024" />

    
    <glyph glyph-name="plus-select-down" unicode="&#59152;" d="M9.01040524 639.8578397l502.93760618-502.93760612 502.93560661 502.93760612h-1005.87121321zM9.01040524 639.8578397z"  horiz-adv-x="1024" />

    
    <glyph glyph-name="lingqukehu" unicode="&#58908;" d="M960 96h-128v-128h-64v128h-128v64h128v128h64v-128h128v-64z m-448 256a256 256 0 1 0 0 512 256 256 0 0 0 0-512z m0 448a192 192 0 1 1 0-384 192 192 0 0 1 0 384z m128-531.84v-66.88a378.624 378.624 0 0 1-128 22.72c-166.976 0-307.584-107.2-360.512-256H84.8c55.36 184.576 224.576 320 427.2 320 44.736 0 87.424-7.616 128-19.84z"  horiz-adv-x="1024" />

    
    <glyph glyph-name="quanxianguanli" unicode="&#58897;" d="M262.4-51.2H115.2C128 153.6 300.8 320 512 320c51.2 0 96-6.4 140.8-25.6l44.8 44.8h-6.4c-12.8 6.4-25.6 12.8-38.4 12.8 19.2 12.8 38.4 25.6 57.6 44.8 51.2 51.2 83.2 121.6 83.2 198.4 0 76.8-32 147.2-83.2 198.4C659.2 851.2 588.8 876.8 512 876.8 435.2 876.8 364.8 844.8 313.6 793.6c-51.2-51.2-83.2-121.6-83.2-192 0-76.8 32-147.2 83.2-198.4 19.2-19.2 38.4-32 57.6-44.8l-38.4-19.2c-51.2-19.2-102.4-51.2-147.2-96-44.8-44.8-76.8-89.6-96-147.2-25.6-57.6-38.4-115.2-38.4-179.2 0-19.2 12.8-32 32-32h179.2c19.2 0 32 12.8 32 32s-19.2 32-32 32z m25.6 652.8C288 723.2 384 825.6 512 825.6c121.6 0 224-96 224-224 0-121.6-96-224-224-224-121.6 0-224 96-224 224z m646.4-505.6c-19.2 51.2-51.2 96-83.2 134.4l-44.8-38.4c57.6-64 96-147.2 102.4-243.2h-147.2c-19.2 0-32-12.8-32-32s12.8-32 32-32h179.2c19.2 0 32 12.8 32 32 0 64-12.8 121.6-38.4 179.2zM832 345.6c-12.8 12.8-32 12.8-38.4 0L512 64l-121.6 121.6c-12.8 12.8-32 12.8-38.4 0-12.8-12.8-12.8-32 0-38.4L492.8 0c6.4 0 12.8-6.4 19.2-6.4 6.4 0 12.8 0 19.2 6.4L832 300.8c12.8 12.8 12.8 32 0 44.8z"  horiz-adv-x="1024" />

    
    <glyph glyph-name="xiala1" unicode="&#58901;" d="M1011.2 584.533c-17.067 17.067-42.667 17.067-59.733 0l-439.467-413.867-439.467 413.867c-17.067 17.067-42.667 17.067-59.733 0-17.067-17.067-17.067-42.667 0-59.733l439.467-413.867c17.067-17.067 38.4-25.6 59.733-25.6s42.667 8.533 59.733 25.6l439.467 413.867c17.067 17.067 17.067 42.667 0 59.733z"  horiz-adv-x="1024" />

    
    <glyph glyph-name="guanbi" unicode="&#59326;" d="M512.001 880.322C237.414 880.322 14.82 657.727 14.82 383.14S237.414-114.04 512-114.04s497.18 222.593 497.18 497.18S786.589 880.322 512.002 880.322z m213.211-645.937c17.798-17.803 17.798-46.657 0-64.456-17.798-17.797-46.658-17.797-64.456 0L512.001 318.685 363.241 169.93c-17.799-17.797-46.652-17.797-64.45 0-17.804 17.799-17.804 46.653 0 64.456L447.545 383.14 298.79 531.896c-17.803 17.798-17.803 46.657 0 64.455 17.799 17.798 46.652 17.798 64.45 0l148.761-148.755 148.755 148.755c17.798 17.798 46.658 17.798 64.456 0 17.798-17.798 17.798-46.657 0-64.455L576.456 383.14l148.756-148.755z m0 0"  horiz-adv-x="1024" />

    
    <glyph glyph-name="wodekehu" unicode="&#59001;" d="M741.345882-48.353882l-6.716235 3.538823c-106.059294 56.003765-191.759059 143.721412-241.317647 246.964706l-0.662588 1.445647c-12.032 27.045647-24.470588 55.009882-24.470588 89.404235 0 86.452706 70.339765 156.792471 156.79247 156.792471 46.125176 0 89.253647-20.118588 118.859294-54.633412a156.265412 156.265412 0 0 0 118.874353 54.633412c86.452706 0 156.792471-70.339765 156.792471-156.792471 0-30.765176-11.324235-55.913412-22.287059-80.233411l-4.367059-9.758118c-51.440941-105.908706-138.255059-193.761882-244.720941-247.928471l-6.776471-3.433411zM466.627765 189.997176l-0.783059 1.731765c-12.649412 28.431059-26.985412 60.672-26.985412 101.285647 0 44.498824 15.736471 85.383529 41.893647 117.443765a362.435765 362.435765 0 0 1-43.068235 11.685647c73.968941 29.304471 126.494118 101.391059 126.494118 185.660235 0 110.155294-89.615059 199.785412-199.770353 199.785412s-199.770353-89.630118-199.770353-199.785412c0-84.239059 52.495059-156.325647 126.418823-185.630117C126.659765 388.171294 2.680471 242.236235 2.680471 67.900235c0-42.375529 29.741176-56.425412 53.639529-67.719529l1.370353-0.572235c96.361412-34.002824 235.715765-43.083294 302.878118-43.083295 63.021176 0 177.904941 8.839529 269.116235 32.13553-69.436235 54.648471-125.786353 123.663059-163.056941 201.33647z"  horiz-adv-x="1024" />

    
    <glyph glyph-name="fangda" unicode="&#58909;" d="M1008.64-25.6l-143.36 143.36c61.44 81.92 102.4 184.32 102.4 296.96 0 266.24-215.04 481.28-481.28 481.28C215.04 896 0 680.96 0 414.72s215.04-481.28 481.28-481.28c112.64 0 215.04 35.84 296.96 102.4l143.36-143.36c25.6-25.6 61.44-25.6 87.04 0 20.48 20.48 20.48 56.32 0 81.92zM92.16 414.72c0 215.04 174.08 389.12 389.12 389.12S870.4 629.76 870.4 414.72 696.32 25.6 481.28 25.6s-389.12 174.08-389.12 389.12zM645.12 460.8h-117.76V578.56c0 25.6-20.48 46.08-46.08 46.08s-46.08-20.48-46.08-46.08v-117.76H317.44c-25.6 0-46.08-20.48-46.08-46.08s20.48-46.08 46.08-46.08h117.76v-117.76c0-25.6 20.48-46.08 46.08-46.08s46.08 20.48 46.08 46.08v117.76h117.76c25.6 0 46.08 20.48 46.08 46.08-5.12 25.6-25.6 46.08-46.08 46.08z"  horiz-adv-x="1024" />

    
    <glyph glyph-name="web-icon-" unicode="&#59101;" d="M193.504 471.488h636.8c13.664 0 25.952 8.032 31.136 20.768a33.28 33.28 0 0 1-7.072 36.32l-200.96 200.96a33.024 33.024 0 0 1-47.168 0 33.024 33.024 0 0 1 0-47.168l143.872-143.872H193.952c-18.4 0-33.504-15.104-33.504-33.504a32.96 32.96 0 0 1 33.056-33.504z m636.8-208h-636.8c-13.664 0-25.952-8.032-31.136-20.768a30.464 30.464 0 0 1-2.368-12.736c0-8.48 3.296-17.44 9.92-23.584l167.456-167.936a33.024 33.024 0 0 1 47.168 0 33.024 33.024 0 0 1 0 47.168l-110.368 110.368h556.128c18.4 0 33.504 15.104 33.504 33.504-0.032 18.4-15.104 33.984-33.504 33.984z"  horiz-adv-x="1024" />

    
    <glyph glyph-name="ERP_yujicangku" unicode="&#58974;" d="M941.568 541.696l-411.136 247.296c-9.728 6.656-22.528 6.656-32.256 0L87.04 541.696c-15.872-9.728-19.456-28.672-9.728-45.056 9.728-15.872 28.672-19.456 45.056-9.728l35.328 22.528v-510.464c0-19.456 12.8-32.256 32.256-32.256s32.256 12.8 32.256 32.256V548.352l292.352 176.64 292.352-176.64v-549.376c0-19.456 12.8-32.256 32.256-32.256s32.256 12.8 32.256 32.256V509.44l38.4-22.528c6.656-3.072 9.728-3.072 15.872-3.072 9.728 0 22.528 6.656 28.672 15.872 6.144 13.312 3.072 35.328-12.8 41.984zM674.816 249.344H353.792c-19.456 0-32.256-12.8-32.256-32.256s12.8-32.256 32.256-32.256h321.024c19.456 0 32.256 12.8 32.256 32.256s-15.872 32.256-32.256 32.256z m0-160.256H353.792c-19.456 0-32.256-12.8-32.256-32.256s12.8-32.256 32.256-32.256h321.024c19.456 0 32.256 12.8 32.256 32.256s-15.872 32.256-32.256 32.256z"  horiz-adv-x="1024" />

    
    <glyph glyph-name="tuikuanguanli" unicode="&#58932;" d="M512-128c282.77 0 512 229.23 512 512S794.77 896 512 896 0 666.77 0 384s229.23-512 512-512z m391.75 499.91c-27.693-0.266-163.466 78.147-167.754 82.235-10.314 9.832-6.416 22.073 4.106 23.746 10.524 1.675 69.611 8.7 69.611 8.7-36.315 97.06-117.346 174.576-223.698 199.7-169.745 40.115-345.285-73.673-384.08-247.335-0.334-1.482-2.678-19.187-16.74-18.626-9.517 0.38-40.699 12.779-51.972 18.067-12.87 6.036-16.347 4.476-12.446 23.906C164.93 683.077 391.03 831.867 608.044 780.9590000000001 788.142 738.718 913.25 582.44 926.996 404.38c2.302-23.862-9.846-32.34-23.247-32.468v-0.003z m-283.452-48.39c17.827 0 32.28-14.438 32.28-32.279 0-17.81-14.453-32.28-32.28-32.28H555.74v-40.348c0-22.288-18.062-40.35-40.35-40.35-22.287 0-40.35 18.061-40.35 40.35v40.348h-64.559c-17.826 0-32.277 14.471-32.277 32.28 0 17.843 14.451 32.279 32.278 32.279h64.56V355.79999999999995h-64.56c-17.827 0-32.278 14.468-32.278 32.278 0 17.842 14.451 32.28 32.278 32.28h64.56v2.208l-71.636 71.62c-12.696 12.705-12.696 33.288 0 45.978s33.272 12.687 45.968 0l65.473-65.458 65.728 65.725c12.695 12.674 33.274 12.674 45.968 0 12.697-12.702 12.697-33.287 0-45.976l-70.8-70.8v-3.295H620.3c17.827 0 32.28-14.439 32.28-32.28 0-17.813-14.453-32.278-32.28-32.278h-64.559v-32.281h64.56l-0.004-0.001z m-323.84-45.55c14.16-9.055 10.748-27.24-4.813-28.86-15.562-1.618-64.293-5.91-64.293-5.91 38.633-90.537 116.928-161.92 218.167-185.832 169.742-40.097 343.333 68.186 382.14 241.849 0.796 3.564 0.77 3.004 2.16 10.654 1.388 7.65 3.637 19.287 18.58 14.108 14.944-5.18 51.392-15.895 62.747-18.931 11.354-3.035 10.076-7.512 8.654-18.063-0.434-3.209-1.09-6.147-1.773-9.236-50.808-225.802-271.97-366.664-493.971-314.571C244.17 5.373000000000047 119.13 161.303 105.14 339.09400000000005c-1.898 30.552 19.687 36.788 41.751 25.116 17.358-9.181 135.403-77.184 149.564-86.239v-0.002z"  horiz-adv-x="1024" />

    
    <glyph glyph-name="piaoquan" unicode="&#58882;" d="M972.7 478.1c29.8 6.1 51.3 32.3 51.3 62.7V772.3c0 16.7-3.3 32.9-9.8 48.2-6.2 14.7-15.1 28-26.5 39.3-11.3 11.3-24.5 20.2-39.3 26.5C933.2 892.7 916.9 896 900.3 896H573.6c-17.7 0-32-14.3-32-32s14.3-32 32-32h326.7c33 0 59.7-26.7 59.7-59.7v-231.5C887 526 832 461.4 832 384s55-142 128-156.8v-231.5c0-33-26.7-59.7-59.7-59.7H123.7c-33 0-59.7 26.7-59.7 59.7V227.6c72 15.6 126 79.7 126 156.4S136 524.8 64 540.4V772.3c0 33 26.7 59.7 59.7 59.7h136.2c17.7 0 32 14.3 32 32s-14.3 32-32 32H123.7C107 896 90.8 892.7 75.5 886.3c-14.7-6.2-28-15.1-39.3-26.5S16 835.2 9.7 820.4C3.3 805.2 0 788.9 0 772.3v-231.9c0-30.1 21-56.2 50.5-62.6 43.8-9.5 75.5-48.9 75.5-93.8s-31.8-84.3-75.5-93.8C21 283.8 0 257.8 0 227.6v-231.9c0-16.7 3.3-32.9 9.7-48.2 6.2-14.7 15.1-28 26.5-39.3s24.6-20.3 39.3-26.5c15.3-6.5 31.5-9.7 48.2-9.7h776.5c16.7 0 32.9 3.3 48.2 9.7 14.7 6.2 28 15.1 39.3 26.5 11.3 11.3 20.3 24.6 26.5 39.3 6.5 15.3 9.8 31.5 9.8 48.2V227.2c0 30.4-21.4 56.7-51.3 62.7-44.5 9-76.7 48.6-76.7 94.1s32.3 85.1 76.7 94.1zM352 351.2c-17.7 0-32-14.3-32-32s14.3-32 32-32h128v-96c0-17.7 14.3-32 32-32s32 14.3 32 32v96h128c17.7 0 32 14.3 32 32s-14.3 32-32 32H544v64h128c17.7 0 32 14.3 32 32s-14.3 32-32 32h-82.7l73.4 73.4c12.5 12.5 12.5 32.8 0 45.3s-32.8 12.5-45.3 0L512.1 492.5 405.7 599.4c-12.5 12.5-32.7 12.6-45.3 0.1s-12.6-32.7-0.1-45.3l74.7-75.1h-83c-17.7 0-32-14.3-32-32s14.3-32 32-32h128v-64H352zM370.2 832h93.5c17.7 0 32 14.3 32 32s-14.3 32-32 32h-93.5c-17.5-0.2-31.6-14.5-31.6-32s14.1-31.8 31.6-32z"  horiz-adv-x="1024" />

    
    <glyph glyph-name="zhuanhuan" unicode="&#58893;" d="M512-128C229.248-128 0 101.248 0 384S229.248 896 512 896s512-229.248 512-512-229.248-512-512-512z m0 938.666667C276.352 810.666667 85.333333 619.648 85.333333 384s191.018667-426.666667 426.666667-426.666667 426.666667 191.018667 426.666667 426.666667S747.648 810.666667 512 810.666667z m338.133333-357.162667a42.325333 42.325333 0 0 0-23.637333-23.637333c-6.058667-2.56-12.501333-3.456-18.944-3.2H213.333333a42.666667 42.666667 0 0 0 0 85.333333h491.989334l-52.693334 52.693333a44.288 44.288 0 1 0 62.677334 62.677334l125.397333-125.397334c13.098667-13.098667 16.213333-32.341333 9.429333-48.469333zM170.666667 298.666667a42.666667 42.666667 0 0 0 42.666666 42.666666h597.333334a42.666667 42.666667 0 0 0 0-85.333333H316.970667l53.162666-53.162667a44.074667 44.074667 0 0 0-62.293333-62.293333l-124.629333 124.629333a43.605333 43.605333 0 0 0-12.501334 33.237334L170.666667 298.666667z"  horiz-adv-x="1024" />

    
    <glyph glyph-name="mendian" unicode="&#58890;" d="M960.507 528.896c-0.046 0.512-0.174 0.957-0.22 1.331-0.446 1.89-0.973 3.733-1.69 5.51l-76.913 190.98c-13.322 39.614-51.517 63.903-96.276 63.995H245.949c-45.342 0-80.537-24.069-93.28-62.126L70.046 533.72c-0.4-1.157-0.799-2.842-1.173-4.577-6.016-18.386-9.016-37.279-9.016-56.218 0.066-66.657 36.68-127.452 95.544-158.807 0 0 0-0.046 0.02-0.046 0.042 0 0.042 0 0.042-0.046 0 0 0.02 0 0.02-0.041 24.248-12.923 52.736-19.41 84.844-19.41 53.826 0.133 103.628 23.716 137.62 64.123 33.777-40.054 83.22-63.498 136.96-63.857 53.29 0.44 102.584 23.936 136.243 63.99 33.977-40.366 83.892-63.903 137.933-63.903 32.686 0.18 61.768 7.02 86.288 20.43 57.953 31.62 93.926 92.256 93.88 158.228 0.092 18.964-3.016 38.016-8.745 55.311zM843.935 364.518c-14.833-8.125-33.393-12.298-54.933-12.39-39.926 0-76.293 20.204-97.566 54.554-1.51 3.266-4.086 8.617-8.75 13.788-5.458 6.062-15.274 13.23-31.442 13.23-13.103 0-24.914-5.33-31.576-13.502-4.439-5.017-6.84-9.948-8.57-13.522-21.008-33.904-57.068-54.333-96.19-54.645-39.634 0.225-75.827 20.603-96.947 54.758-1.464 3.02-3.932 8.105-7.772 12.39-15.411 18.36-49.915 17.409-63.35 1.419-4.951-5.417-7.552-10.86-9.216-14.52-21.16-33.926-57.6-54.314-97.367-54.4-21.161 0-39.327 3.993-53.914 11.77h-0.112c-37.504 19.917-69.187 67.057-69.212 109.466 0 12.523 2.063 25.175 6.287 37.478 0.312 0.886 0.553 1.864 0.799 2.868l81.382 200.35c1.664 4.926 6.707 19.85 32 19.85h556.396c10.434-0.599 28.334-2.442 34.682-21.135l76.207-197.775a30.75 30.75 0 0 1 0.972-3.753c4.265-12.345 6.303-24.894 6.303-37.325 0.097-41.897-31.206-88.812-68.111-108.954z m28.774-96.716c-18.12 0-28.6-14.654-28.6-32.733l0.092-182.743c0-10.168-8.305-18.432-18.473-18.467l-633.646-0.4c-10.168 0-18.427 8.213-18.427 18.294l-0.246 179.722c-0.02 18.028-10.526 32.64-28.6 32.64h-0.067c-18.073-0.046-28.554-14.7-28.528-32.814l0.22-175.416c0-46.142 37.683-83.712 83.999-83.712l617.036 0.4c46.275 0.091 83.938 37.744 83.938 83.931l-0.092 178.57c-0.006 18.11-10.486 32.728-28.606 32.728z m-101.606 237.49H246.482c-18.12 0-32.799 10.502-32.799 28.555 0 18.028 14.7 28.554 32.799 28.554h524.62c18.115 0 32.769-10.526 32.769-28.554 0.005-18.048-14.649-28.554-32.768-28.554z"  horiz-adv-x="1024" />

    
    <glyph glyph-name="kehu1" unicode="&#58991;" d="M593.92 265.671111s-34.133333 9.102222-43.235556 13.653333c-18.204444 11.377778-29.582222 34.133333-29.582222 56.888889 0 25.031111 20.48 45.511111 34.133334 61.44 34.133333 40.96 52.337778 95.573333 52.337777 157.013334 0 127.431111-91.022222 229.831111-202.524444 229.831111S202.524444 679.822222 202.524444 552.391111c0-61.44 20.48-116.053333 52.337778-157.013333 20.48-11.377778 34.133333-36.408889 34.133334-61.44 0-22.755556-11.377778-43.235556-29.582223-56.888889v-2.275556c-2.275556 0-4.551111-2.275556-4.551111-2.275555-11.377778-6.826667-22.755556-11.377778-36.408889-11.377778-86.471111-29.582222-159.288889-75.093333-202.524444-131.982222h2.275555c-11.377778-15.928889-15.928889-34.133333-15.928888-52.337778 0-54.613333 45.511111-100.124444 102.4-100.124444H705.422222c59.164444 0 104.675556 43.235556 104.675556 100.124444 0 22.755556-9.102222 43.235556-20.48 61.44-43.235556 56.888889-111.502222 100.124444-195.697778 127.431111zM1001.244444 165.546667c-38.684444 47.786667-97.848889 88.746667-172.942222 111.502222 0 0-29.582222 6.826667-38.684444 11.377778-15.928889 11.377778-25.031111 29.582222-25.031111 50.062222 0 22.755556 18.204444 40.96 29.582222 52.337778 29.582222 36.408889 47.786667 84.195556 47.786667 138.808889 0 111.502222-79.644444 204.8-179.768889 204.8-15.928889 0-31.857778-2.275556-45.511111-6.826667 34.133333-50.062222 52.337778-109.226667 52.337777-175.217778 0-70.542222-25.031111-138.808889-68.266666-195.697778l-4.551111-4.551111v-2.275555c-4.551111-4.551111-11.377778-11.377778-13.653334-18.204445 0-2.275556 0-2.275556 2.275556-2.275555 4.551111-2.275556 11.377778-4.551111 18.204444-4.551111h2.275556l9.102222-4.551112c93.297778-29.582222 172.942222-81.92 225.28-147.911111 22.755556-29.582222 36.408889-63.715556 36.408889-100.124444 0-20.48-4.551111-36.408889-11.377778-54.613333h65.991111c52.337778 0 93.297778 38.684444 93.297778 88.746666-2.275556 25.031111-9.102222 43.235556-22.755556 59.164445z m0 0"  horiz-adv-x="1024" />

    
    <glyph glyph-name="duanxin" unicode="&#59250;" d="M204.8 672l278.4-278.4c12.8-12.8 35.2-12.8 48 0l288 278.4H204.8z m688-19.2l-320-307.2c-38.4-35.2-99.2-35.2-137.6 0L131.2 656c-3.2-6.4-3.2-9.6-3.2-16v-512c0-19.2 12.8-32 32-32h704c19.2 0 32 12.8 32 32V640c0 3.2 0 9.6-3.2 12.8zM160 736h704c54.4 0 96-41.6 96-96v-512c0-54.4-41.6-96-96-96H160c-54.4 0-96 41.6-96 96V640c0 54.4 41.6 96 96 96z"  horiz-adv-x="1024" />

    
    <glyph glyph-name="zhekouqia" unicode="&#58903;" d="M892.3 748.8h-762c-36.8 0-67-30.2-67-67V612h896v69.7c0 36.9-30.1 67.1-67 67.1zM63.3 529.2v-455.7c0-36.9 30.2-67 67-67h762c36.9 0 67 30.1 67 67V529.2h-896z m331.1-428.1c-10-0.9-21.3-1.4-33.9-1.4-0.9 3.6-1.8 9.5-2.7 17.7-1.8 8.1-3.2 14-4.1 17.7 2.7 0 7.2-0.4 13.6-1.4h12.2c10.9-0.9 15.8 3.6 14.9 13.6v73.3c-3.6-0.9-9.1-2.3-16.3-4.1-5.4-0.9-14.5-3.2-27.2-6.8l-2.7 39.4c2.7 0.9 6.8 1.8 12.2 2.7 6.3 0.9 17.7 3.2 33.9 6.8v65.2h-40.7v33.9h40.7v61.1h35.3v-61.1h38v-33.9h-38v-58.4l36.7 8.1v-35.3c-2.7-0.9-7.3-2.3-13.6-4.1-10-1.8-17.7-3.6-23.1-5.4v-91c1-24.4-10.7-36.6-35.2-36.6zM678.2 264h-53v-165.6h-36.7V264h-65.2c0-70.6-14-126.7-42.1-168.4-1.8 1.8-4.5 4.1-8.1 6.8-10.9 10-18.6 16.3-23.1 19 26.2 33.5 38.5 85.5 36.7 156.1V395.7c41.6 0.9 98.6 5.4 171.1 13.6l12.2-33.9c-41.6-4.5-90.5-8.6-146.6-12.2V298h154.8v-34z"  horiz-adv-x="1024" />

    
    <glyph glyph-name="chenggong" unicode="&#58888;" d="M512-128A512 512 0 1 0 512 896a512 512 0 0 0 0-1024z m-49.590857 377.197714L315.977143 397.385143 219.428571 305.152c70.217143-37.814857 168.594286-106.788571 252.854858-213.723429C531.821714 203.337143 715.337143 432.274286 804.571429 452.754286c-14.409143 57.709714-22.528 166.034286 0 223.817143-183.003429-120.685714-342.162286-427.373714-342.162286-427.373715z"  horiz-adv-x="1024" />

    
    <glyph glyph-name="navicon-pdsp" unicode="&#58966;" d="M509.952-74.75199999999995H116.224c-13.824 0-24.576 10.752-24.576 24.576V642.048c0 13.824 10.752 24.576 24.576 24.576h787.968c13.824 0 24.576-10.752 24.576-24.576v-239.104c0-13.824-10.752-24.576-24.576-24.576s-24.576 10.752-24.576 24.576V617.472H140.288v-643.584h369.664c13.824 0 24.576-10.752 24.576-24.576s-10.752-24.064-24.576-24.064zM509.952-87.55200000000002H116.224c-20.992 0-37.376 16.384-37.376 37.376V642.048c0 20.992 16.384 37.376 37.376 37.376h787.968c20.992 0 37.376-16.384 37.376-37.376v-239.104c0-20.992-16.384-37.376-37.376-37.376s-37.376 16.384-37.376 37.376V604.672H153.088v-617.984h356.864c20.992 0 37.376-16.384 37.376-37.376s-16.384-36.864-37.376-36.864zM116.224 653.312c-6.656 0-11.776-5.12-11.776-11.776v-692.224c0-6.656 5.12-11.776 11.776-11.776h393.728c6.656 0 11.776 5.12 11.776 11.776s-5.12 11.776-11.776 11.776H127.488V630.2719999999999h764.928v-227.328c0-6.656 5.12-11.776 11.776-11.776s11.776 5.12 11.776 11.776V642.048c0 6.656-5.12 11.776-11.776 11.776H116.224zM903.68 617.472H116.224c-9.216 0-17.408 5.12-21.504 13.312-4.096 8.192-3.584 17.408 1.536 25.088L216.064 829.44c4.608 6.144 12.288 10.24 19.968 10.24h539.648c7.68 0 14.848-4.096 19.456-9.728l128-173.568c5.12-7.168 6.144-16.896 2.048-25.088-4.096-8.192-12.288-13.824-21.504-13.824zM162.816 666.112h692.736l-92.16 124.416H248.832c0 0.512-86.016-124.416-86.016-124.416z m498.176-244.224H359.936c-13.824 0-24.576 10.752-24.576 24.576s10.752 24.576 24.576 24.576h301.056c13.824 0 24.576-10.752 24.576-24.576s-11.264-24.576-24.576-24.576zM660.992 409.088H359.936c-20.992 0-37.376 16.384-37.376 37.376s16.384 37.376 37.376 37.376h301.056c20.992 0 37.376-16.384 37.376-37.376s-16.896-37.376-37.376-37.376z m-301.056 48.64c-6.656 0-11.776-5.12-11.776-11.776s5.12-11.776 11.776-11.776h301.056c6.656 0 11.776 5.12 11.776 11.776s-5.12 11.776-11.776 11.776H359.936z m543.744 146.944H116.224c-14.336 0-27.136 7.68-32.768 20.48-5.632 12.288-5.12 26.112 2.048 37.376l0.512 0.512 120.32 173.568c6.656 9.728 18.432 15.872 30.72 15.872h539.648c11.776 0 22.528-5.632 29.696-14.848l128-173.568c8.192-11.264 9.728-26.112 3.072-38.4-6.656-12.8-19.968-20.992-33.792-20.992zM106.496 649.216c-2.56-4.096-2.56-8.704-0.512-12.8 1.536-3.584 5.632-5.632 9.728-5.632h787.968c4.096 0 8.192 2.56 9.728 6.144l0.512 0.512c2.048 3.584 1.536 8.192-1.024 11.776l-128 173.056c-2.048 2.56-5.632 4.608-9.216 4.608H236.032c-3.584 0-7.68-2.048-9.216-4.608L106.496 649.216z m774.656 4.096H155.136l-3.584 7.168c-3.584 6.656-3.584 6.656 14.336 32.768L242.176 803.84h527.872l111.104-150.528z m-693.76 25.6h643.072L757.248 778.24h-501.76c-11.776-16.896-48.128-69.632-68.096-99.328zM716.8 281.08799999999997c0-41.472 33.792-75.264 75.264-75.264s75.264 33.792 75.264 75.264-33.792 75.264-75.264 75.264c-41.472 0.512-75.264-33.28-75.264-75.264zM792.064 193.024c-48.64 0-88.064 39.424-88.064 88.576 0 23.552 9.216 45.568 26.112 62.464 16.896 16.896 38.912 25.6 62.464 25.6s45.568-9.216 62.464-26.112c16.896-16.896 25.6-38.912 25.6-62.464 0-48.64-39.936-88.064-88.576-88.064z m0 151.04c-16.896 0-32.256-6.656-44.032-18.432s-18.432-27.648-18.432-44.544c0-34.304 28.16-62.464 62.464-62.464 34.304 0 62.464 28.16 62.464 62.464 0.512 34.816-27.648 62.976-62.464 62.976 0.512 0 0 0 0 0zM765.44 262.65599999999995H819.2V102.39999999999998h-53.76v160.256z m139.776-209.408h-226.304c-13.824 0-24.576 10.752-24.576 24.576s10.752 24.576 24.576 24.576h226.304c13.824 0 24.576-10.752 24.576-24.576s-10.752-24.576-24.576-24.576z m-48.64-120.832h-128c-13.824 0-24.576 10.752-24.576 24.576s10.752 24.576 24.576 24.576h128c13.824 0 24.576-10.752 24.576-24.576s-10.752-24.576-24.576-24.576zM856.576-80.38400000000001h-128c-20.992 0-37.376 16.384-37.376 37.376s16.384 37.376 37.376 37.376h128c20.992 0 37.376-16.384 37.376-37.376s-16.384-37.376-37.376-37.376z m-128 48.64c-6.656 0-11.776-5.12-11.776-11.776s5.12-11.776 11.776-11.776h128c6.656 0 11.776 5.12 11.776 11.776s-5.12 11.776-11.776 11.776h-128z m176.64 72.192h-226.304c-20.992 0-37.376 16.384-37.376 37.376s16.384 37.376 37.376 37.376H752.64v160.768h79.36v-160.768h73.216c20.992 0 37.376-16.384 37.376-37.376s-16.384-37.376-37.376-37.376z m-226.304 48.64c-6.656 0-11.776-5.12-11.776-11.776 0-6.656 5.12-11.776 11.776-11.776h226.304c6.656 0 11.776 5.12 11.776 11.776 0 6.656-5.12 11.776-11.776 11.776h-226.304z m99.328 26.112h28.16v134.656H778.24v-134.656z"  horiz-adv-x="1030" />

    
    <glyph glyph-name="cuowu" unicode="&#58916;" d="M512 831.8C264.7 831.8 64.2 631.3 64.2 384S264.7-63.8 512-63.8 959.8 136.7 959.8 384 759.3 831.8 512 831.8z m246-256.3L566.5 384 758 192.5 703.5 138 512 329.5 320.5 138 266 192.5 457.5 384 266 575.5l54.5 54.5L512 438.5 703.5 630l54.5-54.5z"  horiz-adv-x="1024" />

    
    <glyph glyph-name="qian2" unicode="&#58935;" d="M513 832.2c-246.5 0-446.3-199.8-446.3-446.3S266.5-60.4 513-60.4s446.3 199.8 446.3 446.3S759.5 832.2 513 832.2z m163.4-297.4L596.6 455h34.9c19.1 0 34.6-15.5 34.6-34.6s-15.5-34.6-34.6-34.6h-83.9v-44.2h83.9c19.1 0 34.6-15.5 34.6-34.6s-15.5-34.6-34.6-34.6h-83.9v-96c0-19.1-15.5-34.6-34.6-34.6s-34.6 15.5-34.6 34.6v96h-83.9c-19.1 0-34.6 15.5-34.6 34.6s15.5 34.6 34.6 34.6h83.9v44.2h-83.9c-19.1 0-34.6 15.5-34.6 34.6s15.5 34.6 34.6 34.6h34.9l-79.8 79.8c-13.5 13.5-13.5 35.4 0 49 13.5 13.5 35.4 13.5 49 0L513 469.3l114.4 114.4c13.5 13.5 35.4 13.5 49 0 13.5-13.5 13.5-35.4 0-48.9z"  horiz-adv-x="1024" />

    
    <glyph glyph-name="kehu3" unicode="&#58949;" d="M512 432c88 0 160 72 160 160S600 752 512 752s-160-72-160-160 72-160 160-160z m-19.2-153.6c-8 6.4-12.8 14.4-12.8 25.6 0 17.6 14.4 32 32 32s32-14.4 32-32c0-11.2-4.8-19.2-12.8-25.6l43.2-152c3.2-11.2 0-22.4-8-30.4l-43.2-43.2c-6.4-6.4-16-6.4-22.4 0L457.6 96c-8 8-11.2 19.2-8 30.4l43.2 152zM372.8 416c-51.2 41.6-84.8 104-84.8 176 0 123.2 100.8 224 224 224s224-100.8 224-224c0-70.4-33.6-134.4-84.8-176C811.2 369.6 928 222.4 928 48c0-52.8-43.2-96-96-96H192c-52.8 0-96 43.2-96 96 0 174.4 116.8 321.6 276.8 368zM832 16c17.6 0 32 14.4 32 32 0 176-144 320-320 320h-64c-176 0-320-144-320-320 0-17.6 14.4-32 32-32h640z"  horiz-adv-x="1024" />

    
    <glyph glyph-name="zhuye" unicode="&#58965;" d="M961.1255228 483.0718065L578.047871 806.7063744c-36.32632905 31.37273872-90.81582263 31.37273872-127.14215168 0L62.8744772 483.0718065c-8.25598388-6.6047871-13.2095742-14.86077098-13.2095742-26.4191484 0-18.16316453 14.86077098-33.0239355 33.0239355-33.0239355 8.25598388 0 16.51196775 3.30239355 21.46555808 8.25598388l11.55837741 9.90718065v-368.21688083c0-74.30385487 56.14069035-135.39813555 127.14215168-135.39813555h538.29014866c69.35026455 0 127.14215168 61.09428068 127.14215168 135.39813555V441.79188713l9.90718064-8.25598388c6.6047871-4.95359033 13.2095742-8.25598388 23.11675485-8.25598388 18.16316453 0 33.0239355 14.86077098 33.0239355 33.0239355 0 8.25598388-4.95359033 18.16316453-13.2095742 24.76795163zM445.952129 4.224741750000021V235.39229024999997c0 18.16316453 14.86077098 33.0239355 33.0239355 33.0239355h66.047871c18.16316453 0 33.0239355-14.86077098 33.0239355-33.0239355v-231.1675485h-132.095742z m396.287226 69.35026455c0-37.97752582-28.07034517-69.35026455-62.74547745-69.35026455H644.095742V235.39229024999997c0 54.48949358-44.58231293 99.0718065-99.0718065 99.0718065h-66.047871c-54.48949358 0-99.0718065-44.58231293-99.0718065-99.0718065v-231.1675485h-135.39813555c-34.67513227 0-62.74547746 31.37273872-62.74547745 69.35026455V496.2813807L492.1856387 755.51927437c11.55837743 9.90718065 29.72154195 9.90718065 42.93111615 0L842.239355 497.93257747v-424.35757117z"  horiz-adv-x="1024" />

    
    <glyph glyph-name="chongzhichenggong" unicode="&#58952;" d="M486.4 384h-102.4a25.6 25.6 0 0 1 0-51.2h102.4v-76.8h-102.4a25.6 25.6 0 0 1 0-51.2h102.4v-102.4a25.6 25.6 0 0 1 51.2 0v102.4h102.4a25.6 25.6 0 0 1 0 51.2h-102.4v76.8h102.4a25.6 25.6 0 0 1 0 51.2H486.4z m0 396.8h-38.4a25.6 25.6 0 0 1 0-51.2h38.4v-38.4a25.6 25.6 0 0 1 51.2 0v38.4h38.4a25.6 25.6 0 0 1 0 51.2h-38.4V819.2a25.6 25.6 0 0 1-51.2 0v-38.4z m210.24-166.4A216.576 216.576 0 0 1 729.6 729.6a216.704 216.704 0 0 1-49.4848 138.1632C880.3072 798.1952 1024 607.872 1024 384c0-282.7648-229.2352-512-512-512S0 101.2352 0 384C0 607.872 143.6928 798.1952 343.8848 867.7632A216.704 216.704 0 0 1 294.4 729.6c0-42.3296 12.0832-81.8048 32.9984-115.2H307.2a25.6 25.6 0 0 1 0-51.2h409.6a25.6 25.6 0 0 1 0 51.2h-20.16z m-64.5248 0H392.3328C363.4048 644.3392 345.6 684.672 345.6 729.6c0 91.904 74.496 166.4 166.4 166.4s166.4-74.496 166.4-166.4c0-44.6848-17.6128-85.312-46.2848-115.2zM473.6 435.2a25.6 25.6 0 0 1-51.2 0v-51.2h51.2v51.2z m128 0a25.6 25.6 0 0 1-51.2 0v-51.2h51.2v51.2z"  horiz-adv-x="1024" />

    
    <glyph glyph-name="rizhi" unicode="&#58900;" d="M904 657.5L746.2 811.8c-13.1 13.1-31 20-48.9 20H195.8c-53.7 0-97.1-44.1-97.1-97.8v-700c0-53.7 43.4-97.8 97.1-97.8h631.7c53.7 0 97.8 44.1 97.8 97.8V607.2c0 18.6-8.2 37.2-21.3 50.3zM856.4 34c0-15.8-13.1-28.9-28.9-28.9H195.8c-15.8 0-28.2 13.1-28.2 28.9V734c0 15.8 12.4 28.9 28.2 28.9l454-0.7v-121.9c0-57.2 46.2-103.3 103.3-103.3h103.3v-503z m0 571.8H753.1c-19.3 0-34.4 15.2-34.4 34.4v102l137.8-135v-1.4zM684 420.8H339.5c-19 0-34.4-15.4-34.4-34.4s15.4-34.4 34.4-34.4H684c19 0 34.4 15.4 34.4 34.4S703 420.8 684 420.8zM684 214.10000000000002H339.5c-19 0-34.4-15.4-34.4-34.4s15.4-34.4 34.4-34.4H684c19 0 34.4 15.4 34.4 34.4S703 214.10000000000002 684 214.10000000000002z"  horiz-adv-x="1024" />

    
    <glyph glyph-name="jiahao" unicode="&#58918;" d="M98 415.14h829.99v-63.79H98zM481.48 797.85h63.79V-31h-63.79z"  horiz-adv-x="1024" />

    
    <glyph glyph-name="ic_opt_feature" unicode="&#58936;" d="M512 857.6L85.344 712.544V345.6c0-149.344 85.344-281.6 226.144-345.6l192-89.6 204.8 93.856c140.8 59.744 230.4 196.256 230.4 349.856v358.4L512.032 857.568z m341.344-503.456c0-119.456-68.256-226.144-179.2-273.056l-170.656-76.8-157.856 72.544c-106.656 46.944-174.944 153.6-174.944 268.8v307.2l341.344 115.2 341.344-115.2v-298.656zM341.344 512c0-81.056 55.456-145.056 128-166.4V128h85.344v42.656h42.656V256h-42.656v89.6c72.544 17.056 128 85.344 128 166.4 0 93.856-76.8 170.656-170.656 170.656s-170.656-76.8-170.656-170.656z m256 0c0-46.944-38.4-85.344-85.344-85.344s-85.344 38.4-85.344 85.344 38.4 85.344 85.344 85.344c46.944 0 85.344-38.4 85.344-85.344z"  horiz-adv-x="1024" />

    
    <glyph glyph-name="shenpi" unicode="&#59135;" d="M896-32H128c-17.6 0-32 14.4-32 32s14.4 32 32 32h768c17.6 0 32-14.4 32-32s-14.4-32-32-32z m0 128H128c-17.6 0-32 14.4-32 32V288c0 52.8 43.2 96 96 96h204.8c-6.4 38.4-25.6 75.2-52.8 107.2-36.8 41.6-56 94.4-56 148.8 0 60.8 24 118.4 68.8 161.6 44.8 43.2 102.4 64 164.8 62.4C636.8 859.2 734.4 760 736 644.8c1.6-57.6-20.8-113.6-59.2-156.8-27.2-28.8-43.2-64-49.6-104H832c52.8 0 96-43.2 96-96v-160c0-17.6-14.4-32-32-32z m-736 64h704V288c0 17.6-14.4 32-32 32H592c-17.6 0-32 14.4-32 32 0 67.2 24 131.2 68.8 179.2 28.8 30.4 43.2 70.4 43.2 112-1.6 83.2-70.4 153.6-153.6 156.8-44.8 1.6-86.4-14.4-116.8-44.8-32-30.4-49.6-72-49.6-115.2 0-38.4 14.4-76.8 40-105.6 46.4-52.8 72-116.8 72-182.4 0-17.6-14.4-32-32-32H192c-17.6 0-32-14.4-32-32v-128z"  horiz-adv-x="1024" />

    
    <glyph glyph-name="kehu" unicode="&#59197;" d="M512 432c88 0 160 72 160 160s-72 160-160 160-160-72-160-160 72-160 160-160z m-19.2-153.6c-8 6.4-12.8 14.4-12.8 25.6 0 17.6 14.4 32 32 32s32-14.4 32-32c0-11.2-4.8-19.2-12.8-25.6l43.2-152c3.2-11.2 0-22.4-8-30.4l-43.2-43.2c-6.4-6.4-16-6.4-22.4 0L457.6 96c-8 8-11.2 19.2-8 30.4l43.2 152zM372.8 416C321.6 457.6 288 520 288 592c0 123.2 100.8 224 224 224s224-100.8 224-224c0-70.4-33.6-134.4-84.8-176C811.2 369.6 928 222.4 928 48c0-52.8-43.2-96-96-96H192c-52.8 0-96 43.2-96 96 0 174.4 116.8 321.6 276.8 368zM832 16c17.6 0 32 14.4 32 32 0 176-144 320-320 320h-64c-176 0-320-144-320-320 0-17.6 14.4-32 32-32h640z"  horiz-adv-x="1024" />

    
    <glyph glyph-name="xintubiao-" unicode="&#59100;" d="M928 702.4c17.6 0 32 14.4 32 32V800c0 52.8-43.2 96-96 96H160C107.2 896 64 852.8 64 800v-768c0-88 72-160 160-160h704c17.6 0 32 14.4 32 32s-14.4 32-32 32H224c-52.8 0-96 43.2-96 96s43.2 96 96 96h704c17.6 0 32 14.4 32 32V542.4c0 17.6-14.4 32-32 32s-32-14.4-32-32V192H224c-36.8 0-68.8-12.8-96-32V800c0 17.6 14.4 32 32 32h704c17.6 0 32-14.4 32-32v-65.6c0-17.6 14.4-32 32-32zM928 64H224c-17.6 0-32-14.4-32-32s14.4-32 32-32h704c17.6 0 32 14.4 32 32s-14.4 32-32 32z"  horiz-adv-x="1024" />

    
    <glyph glyph-name="shouhuo" unicode="&#58895;" d="M928.282 618.43l-76.078 146.396c-18.802 36.082-65.373 64.339-106.022 64.339h-467.77c-40.593 0-87.326-28.094-106.292-63.906L96.096 621.852c-16.41-31.029-29.235-82.762-29.235-117.812v-481.738c0-46.027 37.387-83.468 83.467-83.468h723.34c46.027 0 83.469 37.442 83.469 83.468V500.616c0 34.997-12.66 86.785-28.855 117.814zM145.33 595.823l75.97 143.353c9.51 17.933 36.734 34.344 57.112 34.344h467.771c20.27 0 47.278-16.41 56.679-34.398l76.08-146.34c3.586-6.956 6.955-15.87 10.052-25.433H134.19c3.37 10.705 7.065 20.813 11.14 28.474z m756.161-573.52c0-15.324-12.443-27.821-27.822-27.821h-723.34c-15.378 0-27.822 12.498-27.822 27.821V504.041c0 2.228 0.435 5.163 0.651 7.661h777.408c0.327-3.695 0.924-7.824 0.924-11.085v-478.314zM745.913 358.46L605.765 208.75l-56.568 56.46c-10.869 10.869-28.475 10.869-39.344 0-10.868-10.867-10.868-28.474 0-39.342l76.296-76.08c5.435-5.433 12.499-8.15 19.617-8.15 3.859 0 7.662 0.978 11.305 2.608 4.074 1.414 7.878 3.587 11.03 6.903L786.56 320.42c10.488 11.194 9.89 28.8-1.304 39.343-11.196 10.434-28.802 9.89-39.344-1.304zM429.046 317.813h-166.99c-15.325 0-27.823-12.445-27.823-27.823s12.499-27.823 27.823-27.823h166.991c15.378 0 27.823 12.445 27.823 27.823s-12.445 27.823-27.824 27.823zM344.6 199.13h-83.468c-15.378 0-27.822-12.498-27.822-27.821 0-15.433 12.444-27.823 27.822-27.823H344.6c15.38 0 27.823 12.39 27.823 27.823 0 15.323-12.444 27.822-27.823 27.822z"  horiz-adv-x="1024" />

    
    <glyph glyph-name="shanchu" unicode="&#58923;" d="M865.1 576.1H158.4c-17.6 0-31.9 14.3-31.9 31.9v0.4c0 17.6 14.3 31.9 31.9 31.9h706.7c17.6 0 31.9-14.3 31.9-31.9v-0.4c0-17.6-14.3-31.9-31.9-31.9zM729.8-64.3H295.3c-39.3 0-71.3 32-71.3 71.3V479.8c0 17.7 14.3 32 32 32s32-14.3 32-32V7c0-4 3.3-7.3 7.3-7.3h434.5c4 0 7.3 3.3 7.3 7.3V479.8c0 17.7 14.3 32 32 32s32-14.3 32-32V7c0-39.3-32-71.3-71.3-71.3zM416.1 95c-17.7 0-32 14.3-32 32V414.7c0 17.7 14.3 32 32 32s32-14.3 32-32V127c0-17.7-14.3-32-32-32zM608.1 96.1c-17.7 0-32 14.3-32 32V415.8c0 17.7 14.3 32 32 32s32-14.3 32-32v-287.7c0-17.7-14.3-32-32-32zM703.3 702.2c-17.7 0-32 14.3-32 32v0.9 1.1H352.9v-2c0-17.7-14.3-32-32-32s-32 14.3-32 32v0.9c0 15.7 4.8 30.8 13.6 42.5 10.7 14.3 26.4 22.5 43.1 22.5h333.1c16.7 0 32.4-8.2 43.1-22.5 8.8-11.7 13.6-26.8 13.6-42.5v-0.9c-0.1-17.7-14.4-32-32.1-32z"  horiz-adv-x="1024" />

    
    <glyph glyph-name="sort" unicode="&#58976;" d="M141.3 475.9V707.2l231.2 0.1 0.1-231.3-231.3-0.1z m231.3 308.4H141.2c-42.5-0.1-76.9-34.5-77-77v-231.5c0.1-42.5 34.5-76.9 77-77h231.5c42.5 0.1 76.9 34.5 77 77V707.3c-0.2 42.5-34.6 76.9-77.1 77zM141.3 13.399999999999977V244.79999999999995l231.2 0.1 0.1-231.3-231.3-0.2z m231.3 308.4H141.2c-42.5-0.1-76.9-34.5-77-77v-231.5c0.1-42.5 34.5-76.9 77-77h231.5c42.5 0.1 76.9 34.5 77 77V244.89999999999998c-0.2 42.4-34.6 76.8-77.1 76.9zM719.4 428L555.8 591.6l163.4 163.6 163.7-163.5L719.4 428z m218 218L773.7 809.6c-30.1 30-78.7 30-108.8 0L501.3 646a76.744 76.744 0 0 1-22.5-54.3c-0.1-20.5 8-40.1 22.5-54.6L665 373.4c30.1-30 78.8-30 108.8 0l163.7 163.7c29.9 30.2 29.9 78.9-0.1 108.9zM603.7 13.399999999999977V244.79999999999995l231.2 0.1 0.1-231.3-231.3-0.2z m231.4 308.4H603.6c-42.5-0.1-76.9-34.5-77-77v-231.5c0.1-42.5 34.5-76.9 77-77h231.5c42.5 0.1 76.9 34.5 77 77V244.89999999999998c-0.1 42.4-34.6 76.8-77 76.9z"  horiz-adv-x="1024" />

    
    <glyph glyph-name="jine" unicode="&#59275;" d="M544 352h160a32 32 0 0 0 0-64h-160v-160a32 32 0 0 0-64 0v160h-160a32 32 0 0 0 0 64h160v64h-128a32 32 0 0 0 0 64h82.752l-77.248 77.248a32 32 0 1 0 45.248 45.248L512 493.248l109.248 109.248a32 32 0 1 0 45.248-45.248L589.248 480H672a32 32 0 0 0 0-64h-128v-64z m-32-416C264.576-64 64 136.57600000000002 64 384S264.576 832 512 832s448-200.576 448-448-200.576-448-448-448z m0 64c212.064 0 384 171.936 384 384S724.064 768 512 768 128 596.0640000000001 128 384s171.936-384 384-384z"  horiz-adv-x="1024" />

    
    <glyph glyph-name="chanpinku" unicode="&#58947;" d="M837.8 811.6H186.2L64 628.4v-590.5c0-45 36.5-81.5 81.5-81.5h733.1c45 0 81.5 36.5 81.5 81.5V628.4L837.8 811.6z m-610.9-61.1h570.2l81.5-122.2H145.5l81.4 122.2z m366.6-183.2v-285.1l-82.3 40.7-80.6-40.7V567.3h162.9z m305.4-509.1c0-22.5-18.2-40.7-40.7-40.7H165.8c-22.5 0-40.7 18.2-40.7 40.7V567.3h244.4v-386.9l142.2 81.5 142.9-81.5V567.3H899v-509.1z"  horiz-adv-x="1024" />

    
    <glyph glyph-name="jichutubiao-XC-diannao" unicode="&#58944;" d="M853.333333 810.666667H170.666667C99.946667 810.666667 42.666667 753.386667 42.666667 682.666667v-426.666667c0-70.72 57.28-128 128-128h298.666666v-85.333333H341.333333a42.666667 42.666667 0 0 1 0-85.333334h341.333334a42.666667 42.666667 0 0 1 0 85.333334H554.666667v85.333333h298.666666c70.72 0 128 57.28 128 128V682.666667c0 70.72-57.28 128-128 128z m42.666667-554.666667c0-23.573333-19.093333-42.666667-42.666667-42.666667H170.666667c-23.573333 0-42.666667 19.093333-42.666667 42.666667V682.666667c0 23.573333 19.093333 42.666667 42.666667 42.666666h682.666666c23.573333 0 42.666667-19.093333 42.666667-42.666666v-426.666667z"  horiz-adv-x="1024" />

    
    <glyph glyph-name="shouqi" unicode="&#58887;" d="M890.2 781H133.8c-20.9 0-37.8-16.9-37.8-37.8v-37.8c0-20.9 16.9-37.8 37.8-37.8h756.4c20.9 0 37.8 16.9 37.8 37.8v37.8c0 20.9-16.9 37.8-37.8 37.8zM890.2 440.7H398.5c-20.9 0-37.8-16.9-37.8-37.8v-37.8c0-20.9 16.9-37.8 37.8-37.8h491.6c20.9 0 37.8 16.9 37.8 37.8v37.8c0.1 20.9-16.8 37.8-37.7 37.8zM890.2 100.4H133.8c-20.9 0-37.8-16.9-37.8-37.8v-37.8c0-20.9 16.9-37.8 37.8-37.8h756.4c20.9 0 37.8 16.9 37.8 37.8v37.8c0 20.9-16.9 37.8-37.8 37.8zM266.2 295.3V472.7c0 22-29.2 33.1-46.2 17.5l-97.1-88.7c-10.6-9.7-10.6-25.3 0-35l97.1-88.7c17-15.5 46.2-4.5 46.2 17.5z"  horiz-adv-x="1024" />

    
    <glyph glyph-name="kehuguanli1" unicode="&#58943;" d="M511.56036067 806.71321693c44.29366262 0 86.05939908-17.25584376 117.38370142-48.5801461 31.32430234-31.32430234 48.5801461-72.98012897 48.5801461-117.38370141s-17.25584376-86.05939908-48.5801461-117.38370143c-31.32430234-31.32430234-72.98012897-48.5801461-117.38370142-48.5801461s-86.05939908 17.25584376-117.38370143 48.5801461c-31.32430234 31.32430234-48.5801461 72.98012897-48.58014609 117.38370143s17.25584376 86.05939908 48.58014609 117.38370141c31.32430234 31.32430234 73.09003883 48.5801461 117.38370143 48.5801461m0 70.34229299c-130.46297152 0-236.30614051-105.84316899-236.30614052-236.3061405s105.84316899-236.30614051 236.30614052-236.30614052 236.30614051 105.84316899 236.30614052 236.30614052-105.84316899 236.30614051-236.30614052 236.3061405zM708.0791417 313.54779718c49.67924442 0 96.8305627-21.4324174 132.77107803-60.23058837 18.02521257-19.4540404 32.31349084-42.20537579 42.20537578-67.59454717 10.44143411-26.48826969 15.71710609-54.6251869 15.7171061-83.75129259v-68.91346516c0-19.67386007-6.92431946-38.02880215-19.56395024-51.76753126-6.48468013-7.03422929-20.4432289-18.7945814-40.5567283-18.7945814H187.43626375c-20.1134994 0-34.07204815 11.7603521-40.5567283 18.7945814-12.63963076 13.62881926-19.56395023 31.98376134-19.56395025 51.65762142v68.91346517c0 29.01619586 5.27567198 57.26302288 15.7171061 83.75129257 10.00179478 25.38917137 24.18016322 48.14050676 42.2053758 67.59454719 36.05042516 38.90808081 83.20174343 60.23058837 132.77107801 60.23058836h33.96213833l99.57830852-107.71163613c15.71710609-17.03602409 38.13871198-26.8179992 61.3296867-26.81799919 23.08106488 0 45.39276095 9.67206529 61.21977687 26.70808934l100.23776751 107.93145582h33.74231866m0 70.34229299h-58.58194087c-3.62702449 0-7.14413913-1.53873767-9.67206529-4.17657365L522.66125378 253.53702848c-2.63783598-2.85765565-6.15495063-4.17657364-9.67206529-4.17657365-3.51711466 0-7.03422929 1.42882783-9.67206529 4.28648348L386.70279061 379.60360669c-2.52792617 2.74774582-6.0450408 4.28648348-9.67206528 4.28648348h-58.91167038C174.46690349 383.89009017 56.97329223 256.94423329000006 56.97329223 101.86145922000003v-68.91346517c0-77.48643213 58.69185072-140.90440564 130.46297152-140.90440564h651.21575932c71.77112082 0 130.46297152 63.41797353 130.46297152 140.90440564v68.91346517c0.10990983 155.08277409-117.38370143 282.02863095-261.03585289 282.02863095z"  horiz-adv-x="1024" />

    
    <glyph glyph-name="tianchongxing-" unicode="&#58940;" d="M971.5 194.9H824.1c-52.3 0-94.7 42.4-94.7 94.7 0 52.3 42.4 94.7 94.7 94.7h147.3c4.5 0 9-0.3 13.3-0.9V584.6c-4.4 43.6-39.9 77.8-83.8 79.6H127.2c-48.4 0-87.7-39.6-87.8-88.5V-3.5c5.1-39.4 35.8-70.7 74.7-76.2h801.8c34.8 7 62.2 34.8 69 70.1V195.8c-4.5-0.6-8.9-0.9-13.4-0.9zM849.1 290.9m-42 0a42 42 0 1 1 84 0 42 42 0 1 1-84 0ZM834.8 719.6l-51.6 93.3c-24.9 36-72.6 48.8-111.8 29.1L449.8 719.6h385z"  horiz-adv-x="1024" />

    
    <glyph glyph-name="qiankuanzhuangtai" unicode="&#58907;" d="M144.896 186.36800000000005c-7.168 13.824-24.576 18.944-37.888 11.776s-18.944-24.576-11.776-37.888c31.744-58.88 75.776-110.592 129.024-151.552 11.776-9.728 29.184-8.192 38.912 3.584 9.728 11.776 8.192 29.184-3.584 38.912-0.512 0.512-1.024 1.024-2.048 1.536-46.08 36.352-84.992 81.92-112.64 133.632zM512 856.064C250.88 856.064 39.424 644.608 39.424 384c0-15.36 12.288-27.648 27.648-27.648s27.648 12.288 27.648 27.648c0 229.888 186.368 416.768 416.256 416.768s416.768-186.368 416.768-416.256-186.368-416.768-416.256-416.768c-28.16 0-55.808 2.56-83.456 8.192-15.36 3.072-30.208-6.656-33.28-22.016s6.656-30.208 22.016-33.28c256-49.664 503.808 117.76 553.472 373.76 49.664 256-117.76 503.808-373.76 553.472-27.648 5.12-56.32 8.192-84.48 8.192zM506.88-98.30399999999997c-30.208 0-60.928 3.072-92.16 8.704-10.24 2.048-18.944 7.68-24.576 16.384-5.632 8.704-7.68 18.944-5.632 28.672 2.048 10.24 7.68 18.944 16.384 24.576 8.704 5.632 18.944 7.68 28.672 5.632 26.624-5.632 53.248-8.192 81.408-8.192 223.744 0 406.016 182.272 406.016 406.528 0 223.744-182.272 406.016-406.528 406.016-223.744 0-406.016-182.272-406.016-406.528 0-20.992-16.896-37.888-37.888-37.888-20.992 0-37.888 16.896-37.888 37.888C29.184 649.7280000000001 245.76 866.304 512 866.304c27.136 0 56.32-2.56 86.528-8.192 126.464-24.576 236.032-96.768 308.224-203.776 72.192-107.008 98.304-235.52 73.728-361.984-45.056-230.4-247.296-390.656-473.6-390.656z m-84.48 64.512c-3.584 0-7.168-1.024-9.728-3.072-4.096-2.56-6.656-6.656-7.68-11.264-1.024-4.608 0-9.728 2.56-13.824 2.56-4.096 6.656-6.656 11.264-7.68 29.696-5.632 58.88-8.704 88.064-8.704 216.576 0 410.624 153.6 453.12 374.272C1008.64 546.304 844.8 789.504 594.432 837.632c-28.672 5.12-56.32 8.192-82.432 8.192C257.024 845.824 49.664 638.4639999999999 49.664 384c0-9.728 7.68-17.408 17.408-17.408s17.408 7.68 17.408 17.408c0 235.52 191.488 427.008 426.496 427.008 235.52 0 427.008-191.488 427.008-426.496 0-235.52-191.488-427.008-426.496-427.008-29.696 0-57.856 2.56-85.504 8.192-1.024 0.512-2.56 0.512-3.584 0.512z m-180.736 26.112c-8.704 0-17.408 3.072-24.064 8.704-53.76 41.472-99.328 94.72-131.584 154.624-9.728 17.92-2.56 41.984 15.872 51.712 8.704 4.608 19.456 5.632 29.184 2.56 9.728-3.072 17.92-9.728 22.528-18.944 26.112-49.152 64-94.208 109.056-130.048 1.536-1.024 2.56-2.048 3.072-2.56 15.872-13.312 17.92-36.864 4.608-53.248-6.656-7.68-15.36-12.8-25.6-13.312-0.512 0.512-1.536 0.512-3.072 0.512z m-121.856 198.656c-3.072 0-5.632-0.512-8.192-2.048-8.704-4.608-12.288-15.872-7.68-24.064 30.72-57.344 74.24-108.544 126.464-148.48 4.096-3.072 8.192-4.608 12.8-4.096 4.608 0.512 8.704 2.56 11.776 6.144 6.144 7.68 5.12 18.432-2.048 24.576l-2.048 1.536c-47.616 37.888-87.552 84.992-115.2 136.704-2.048 4.096-5.632 7.168-10.24 8.704-2.048 1.024-3.584 1.024-5.632 1.024zM316.928 374.784v-55.296h166.912v-204.288h55.296v204.288h166.4v55.296h-166.4V448h166.4V503.808h-129.024l110.08 110.08-39.424 38.912L512 517.12 375.808 652.8l-39.424-38.912 110.08-110.08H317.44v-55.296h166.4v-73.216l-166.912-0.512zM549.376 104.96000000000004H473.6v204.288H306.688V385.536h166.912V438.272H307.2V514.048h114.688L322.048 613.8879999999999l53.76 53.248L512 531.456l135.168 135.68 53.76-53.248-99.84-99.84h114.688v-76.288h-166.4v-52.736h166.4v-75.776h-166.4v-204.288z m-55.296 20.48h34.816v204.288h166.4v34.816h-166.4V458.24h166.4v35.328h-143.36l120.32 120.32-24.576 24.576L512 502.784 375.808 638.4639999999999l-25.088-24.576L471.04 493.568H327.68v-34.816h166.4v-93.696H327.168v-35.328h166.912v-204.288z"  horiz-adv-x="1024" />

    
    </font>
</defs>
</svg>
